<mxfile host="65bd71144e">
    <diagram id="AqyZHROttWwrUAmMwhq6" name="Sơ đồ hoạt động - QL thuê phòng">
        <mxGraphModel dx="1118" dy="828" grid="1" gridSize="10" guides="1" tooltips="1" connect="1" arrows="1" fold="1" page="1" pageScale="1" pageWidth="827" pageHeight="1169" background="#ffffff" math="0" shadow="0">
            <root>
                <mxCell id="xFaBLY0nuqhi4tWlqlkD-0"/>
                <mxCell id="xFaBLY0nuqhi4tWlqlkD-1" parent="xFaBLY0nuqhi4tWlqlkD-0"/>
                <mxCell id="xFaBLY0nuqhi4tWlqlkD-2" value="" style="ellipse;fillColor=#000000;strokeColor=none;" vertex="1" parent="xFaBLY0nuqhi4tWlqlkD-1">
                    <mxGeometry x="370" y="10" width="30" height="30" as="geometry"/>
                </mxCell>
                <mxCell id="xFaBLY0nuqhi4tWlqlkD-3" value="Quản lý thuê phòng" style="html=1;strokeColor=#000000;fillColor=#FFFFFF;fontColor=#000000;" vertex="1" parent="xFaBLY0nuqhi4tWlqlkD-1">
                    <mxGeometry x="320" y="80" width="130" height="40" as="geometry"/>
                </mxCell>
                <mxCell id="xFaBLY0nuqhi4tWlqlkD-4" value="" style="endArrow=open;endFill=1;endSize=12;html=1;fontColor=#000000;exitX=0.5;exitY=1;exitDx=0;exitDy=0;strokeColor=#000000;entryX=0.5;entryY=0;entryDx=0;entryDy=0;" edge="1" parent="xFaBLY0nuqhi4tWlqlkD-1" source="xFaBLY0nuqhi4tWlqlkD-2" target="xFaBLY0nuqhi4tWlqlkD-3">
                    <mxGeometry width="160" relative="1" as="geometry">
                        <mxPoint x="330" y="320" as="sourcePoint"/>
                        <mxPoint x="490" y="320" as="targetPoint"/>
                    </mxGeometry>
                </mxCell>
                <mxCell id="xFaBLY0nuqhi4tWlqlkD-52" style="edgeStyle=none;html=1;exitX=0.5;exitY=1;exitDx=0;exitDy=0;entryX=0.5;entryY=0;entryDx=0;entryDy=0;fontColor=#000000;strokeColor=#000000;" edge="1" parent="xFaBLY0nuqhi4tWlqlkD-1" source="xFaBLY0nuqhi4tWlqlkD-6" target="xFaBLY0nuqhi4tWlqlkD-7">
                    <mxGeometry relative="1" as="geometry"/>
                </mxCell>
                <mxCell id="xFaBLY0nuqhi4tWlqlkD-6" value="Lấy DS phòng đã thuê" style="html=1;strokeColor=#000000;fillColor=#FFFFFF;fontColor=#000000;" vertex="1" parent="xFaBLY0nuqhi4tWlqlkD-1">
                    <mxGeometry x="140" y="180" width="150" height="40" as="geometry"/>
                </mxCell>
                <mxCell id="xFaBLY0nuqhi4tWlqlkD-7" value="Xóa phòng" style="html=1;strokeColor=#000000;fillColor=#FFFFFF;fontColor=#000000;" vertex="1" parent="xFaBLY0nuqhi4tWlqlkD-1">
                    <mxGeometry x="160" y="290" width="110" height="40" as="geometry"/>
                </mxCell>
                <mxCell id="xFaBLY0nuqhi4tWlqlkD-55" style="edgeStyle=none;html=1;exitX=0.5;exitY=1;exitDx=0;exitDy=0;entryX=0.5;entryY=0;entryDx=0;entryDy=0;fontColor=#000000;strokeColor=#000000;" edge="1" parent="xFaBLY0nuqhi4tWlqlkD-1" source="xFaBLY0nuqhi4tWlqlkD-8" target="xFaBLY0nuqhi4tWlqlkD-54">
                    <mxGeometry relative="1" as="geometry"/>
                </mxCell>
                <mxCell id="xFaBLY0nuqhi4tWlqlkD-8" value="Chọn phòng thuê" style="html=1;strokeColor=#000000;fillColor=#FFFFFF;fontColor=#000000;" vertex="1" parent="xFaBLY0nuqhi4tWlqlkD-1">
                    <mxGeometry x="410" y="260" width="110" height="40" as="geometry"/>
                </mxCell>
                <mxCell id="xFaBLY0nuqhi4tWlqlkD-9" value="" style="endArrow=open;endFill=1;endSize=12;html=1;fontColor=#000000;exitX=0.5;exitY=1;exitDx=0;exitDy=0;strokeColor=#000000;" edge="1" parent="xFaBLY0nuqhi4tWlqlkD-1" source="xFaBLY0nuqhi4tWlqlkD-3">
                    <mxGeometry width="160" relative="1" as="geometry">
                        <mxPoint x="395" y="50" as="sourcePoint"/>
                        <mxPoint x="385" y="150" as="targetPoint"/>
                    </mxGeometry>
                </mxCell>
                <mxCell id="xFaBLY0nuqhi4tWlqlkD-53" style="edgeStyle=none;html=1;exitX=0.5;exitY=1;exitDx=0;exitDy=0;entryX=0.5;entryY=0;entryDx=0;entryDy=0;fontColor=#000000;strokeColor=#000000;" edge="1" parent="xFaBLY0nuqhi4tWlqlkD-1" source="xFaBLY0nuqhi4tWlqlkD-12" target="xFaBLY0nuqhi4tWlqlkD-8">
                    <mxGeometry relative="1" as="geometry"/>
                </mxCell>
                <mxCell id="xFaBLY0nuqhi4tWlqlkD-12" value="Đăng ký thuê phòng" style="html=1;strokeColor=#000000;fillColor=#FFFFFF;fontColor=#000000;" vertex="1" parent="xFaBLY0nuqhi4tWlqlkD-1">
                    <mxGeometry x="390" y="180" width="150" height="40" as="geometry"/>
                </mxCell>
                <mxCell id="xFaBLY0nuqhi4tWlqlkD-37" value="" style="endArrow=none;startArrow=none;endFill=0;startFill=0;endSize=8;html=1;verticalAlign=bottom;labelBackgroundColor=none;strokeWidth=3;fontColor=#000000;strokeColor=#000000;" edge="1" parent="xFaBLY0nuqhi4tWlqlkD-1">
                    <mxGeometry width="160" relative="1" as="geometry">
                        <mxPoint x="115" y="150" as="sourcePoint"/>
                        <mxPoint x="655" y="150" as="targetPoint"/>
                    </mxGeometry>
                </mxCell>
                <mxCell id="xFaBLY0nuqhi4tWlqlkD-38" value="" style="endArrow=open;endFill=1;endSize=12;html=1;fontColor=#000000;strokeColor=#000000;entryX=0.5;entryY=0;entryDx=0;entryDy=0;" edge="1" parent="xFaBLY0nuqhi4tWlqlkD-1" target="xFaBLY0nuqhi4tWlqlkD-6">
                    <mxGeometry width="160" relative="1" as="geometry">
                        <mxPoint x="215" y="150" as="sourcePoint"/>
                        <mxPoint x="225" y="380" as="targetPoint"/>
                    </mxGeometry>
                </mxCell>
                <mxCell id="xFaBLY0nuqhi4tWlqlkD-39" value="" style="endArrow=open;endFill=1;endSize=12;html=1;fontColor=#000000;strokeColor=#000000;entryX=0.5;entryY=0;entryDx=0;entryDy=0;" edge="1" parent="xFaBLY0nuqhi4tWlqlkD-1" target="xFaBLY0nuqhi4tWlqlkD-12">
                    <mxGeometry width="160" relative="1" as="geometry">
                        <mxPoint x="465" y="150" as="sourcePoint"/>
                        <mxPoint x="235" y="390" as="targetPoint"/>
                    </mxGeometry>
                </mxCell>
                <mxCell id="xFaBLY0nuqhi4tWlqlkD-58" style="edgeStyle=none;html=1;exitX=0.5;exitY=1;exitDx=0;exitDy=0;entryX=0.5;entryY=0;entryDx=0;entryDy=0;fontColor=#000000;strokeColor=#000000;" edge="1" parent="xFaBLY0nuqhi4tWlqlkD-1" source="xFaBLY0nuqhi4tWlqlkD-54" target="xFaBLY0nuqhi4tWlqlkD-57">
                    <mxGeometry relative="1" as="geometry"/>
                </mxCell>
                <mxCell id="xFaBLY0nuqhi4tWlqlkD-54" value="Nhập ngày thuê" style="html=1;strokeColor=#000000;fillColor=#FFFFFF;fontColor=#000000;" vertex="1" parent="xFaBLY0nuqhi4tWlqlkD-1">
                    <mxGeometry x="410" y="350" width="110" height="40" as="geometry"/>
                </mxCell>
                <mxCell id="PqSuvPUhHEyQhevZ37n3-4" style="edgeStyle=none;html=1;exitX=0.5;exitY=1;exitDx=0;exitDy=0;entryX=0.5;entryY=0;entryDx=0;entryDy=0;fontColor=#000000;strokeColor=#000000;" edge="1" parent="xFaBLY0nuqhi4tWlqlkD-1" source="xFaBLY0nuqhi4tWlqlkD-56" target="PqSuvPUhHEyQhevZ37n3-3">
                    <mxGeometry relative="1" as="geometry"/>
                </mxCell>
                <mxCell id="xFaBLY0nuqhi4tWlqlkD-56" value="Lấy thông tin các ca" style="html=1;strokeColor=#000000;fillColor=#FFFFFF;fontColor=#000000;" vertex="1" parent="xFaBLY0nuqhi4tWlqlkD-1">
                    <mxGeometry x="400" y="510" width="130" height="40" as="geometry"/>
                </mxCell>
                <mxCell id="xFaBLY0nuqhi4tWlqlkD-60" style="edgeStyle=none;html=1;exitX=0.5;exitY=1;exitDx=0;exitDy=0;entryX=0.5;entryY=0;entryDx=0;entryDy=0;fontColor=#000000;strokeColor=#000000;" edge="1" parent="xFaBLY0nuqhi4tWlqlkD-1" source="xFaBLY0nuqhi4tWlqlkD-57" target="xFaBLY0nuqhi4tWlqlkD-56">
                    <mxGeometry relative="1" as="geometry"/>
                </mxCell>
                <mxCell id="PqSuvPUhHEyQhevZ37n3-1" style="edgeStyle=none;html=1;exitX=0;exitY=0.5;exitDx=0;exitDy=0;entryX=1;entryY=0.5;entryDx=0;entryDy=0;fontColor=#000000;strokeColor=#000000;" edge="1" parent="xFaBLY0nuqhi4tWlqlkD-1" source="xFaBLY0nuqhi4tWlqlkD-57" target="PqSuvPUhHEyQhevZ37n3-0">
                    <mxGeometry relative="1" as="geometry"/>
                </mxCell>
                <mxCell id="xFaBLY0nuqhi4tWlqlkD-57" value="" style="rhombus;fontColor=#000000;strokeColor=#000000;fillColor=#FFFFFF;" vertex="1" parent="xFaBLY0nuqhi4tWlqlkD-1">
                    <mxGeometry x="450" y="440" width="30" height="30" as="geometry"/>
                </mxCell>
                <mxCell id="M5kNbt1LD413O1NIwZx5-0" value="Yes" style="text;align=center;fontStyle=1;verticalAlign=middle;spacingLeft=3;spacingRight=3;strokeColor=none;rotatable=0;points=[[0,0.5],[1,0.5]];portConstraint=eastwest;fontColor=#000000;fillColor=#FFFFFF;" vertex="1" parent="xFaBLY0nuqhi4tWlqlkD-1">
                    <mxGeometry x="470" y="470" width="30" height="26" as="geometry"/>
                </mxCell>
                <mxCell id="ie11EgWj0wp_g1e0bSKA-0" value="No" style="text;align=center;fontStyle=1;verticalAlign=middle;spacingLeft=3;spacingRight=3;strokeColor=none;rotatable=0;points=[[0,0.5],[1,0.5]];portConstraint=eastwest;fontColor=#000000;fillColor=#FFFFFF;" vertex="1" parent="xFaBLY0nuqhi4tWlqlkD-1">
                    <mxGeometry x="414" y="420" width="30" height="26" as="geometry"/>
                </mxCell>
                <mxCell id="PqSuvPUhHEyQhevZ37n3-2" style="edgeStyle=none;html=1;exitX=0.5;exitY=0;exitDx=0;exitDy=0;entryX=0;entryY=0.5;entryDx=0;entryDy=0;fontColor=#000000;strokeColor=#000000;" edge="1" parent="xFaBLY0nuqhi4tWlqlkD-1" source="PqSuvPUhHEyQhevZ37n3-0" target="xFaBLY0nuqhi4tWlqlkD-54">
                    <mxGeometry relative="1" as="geometry">
                        <Array as="points">
                            <mxPoint x="325" y="370"/>
                        </Array>
                    </mxGeometry>
                </mxCell>
                <mxCell id="PqSuvPUhHEyQhevZ37n3-0" value="Báo lỗi" style="html=1;strokeColor=#000000;fillColor=#FFFFFF;fontColor=#000000;" vertex="1" parent="xFaBLY0nuqhi4tWlqlkD-1">
                    <mxGeometry x="270" y="435" width="110" height="40" as="geometry"/>
                </mxCell>
                <mxCell id="PqSuvPUhHEyQhevZ37n3-6" style="edgeStyle=none;html=1;exitX=0.5;exitY=1;exitDx=0;exitDy=0;entryX=0.5;entryY=0;entryDx=0;entryDy=0;fontColor=#000000;strokeColor=#000000;" edge="1" parent="xFaBLY0nuqhi4tWlqlkD-1" source="PqSuvPUhHEyQhevZ37n3-3" target="PqSuvPUhHEyQhevZ37n3-5">
                    <mxGeometry relative="1" as="geometry"/>
                </mxCell>
                <mxCell id="PqSuvPUhHEyQhevZ37n3-3" value="Chọn ca thuê" style="html=1;strokeColor=#000000;fillColor=#FFFFFF;fontColor=#000000;" vertex="1" parent="xFaBLY0nuqhi4tWlqlkD-1">
                    <mxGeometry x="410" y="590" width="110" height="40" as="geometry"/>
                </mxCell>
                <mxCell id="PqSuvPUhHEyQhevZ37n3-8" style="edgeStyle=none;html=1;exitX=0;exitY=0.5;exitDx=0;exitDy=0;entryX=1;entryY=0.5;entryDx=0;entryDy=0;fontColor=#000000;strokeColor=#000000;" edge="1" parent="xFaBLY0nuqhi4tWlqlkD-1" source="PqSuvPUhHEyQhevZ37n3-5" target="PqSuvPUhHEyQhevZ37n3-7">
                    <mxGeometry relative="1" as="geometry"/>
                </mxCell>
                <mxCell id="PqSuvPUhHEyQhevZ37n3-5" value="Đăng ký thuê" style="html=1;strokeColor=#000000;fillColor=#FFFFFF;fontColor=#000000;" vertex="1" parent="xFaBLY0nuqhi4tWlqlkD-1">
                    <mxGeometry x="410" y="680" width="110" height="40" as="geometry"/>
                </mxCell>
                <mxCell id="PqSuvPUhHEyQhevZ37n3-9" style="edgeStyle=none;html=1;exitX=0.5;exitY=0;exitDx=0;exitDy=0;entryX=0.5;entryY=1;entryDx=0;entryDy=0;fontColor=#000000;strokeColor=#000000;" edge="1" parent="xFaBLY0nuqhi4tWlqlkD-1" source="PqSuvPUhHEyQhevZ37n3-7" target="PqSuvPUhHEyQhevZ37n3-0">
                    <mxGeometry relative="1" as="geometry"/>
                </mxCell>
                <mxCell id="PqSuvPUhHEyQhevZ37n3-11" style="edgeStyle=none;html=1;exitX=0.5;exitY=1;exitDx=0;exitDy=0;entryX=0.5;entryY=0;entryDx=0;entryDy=0;fontColor=#000000;strokeColor=#000000;" edge="1" parent="xFaBLY0nuqhi4tWlqlkD-1" source="PqSuvPUhHEyQhevZ37n3-7" target="PqSuvPUhHEyQhevZ37n3-10">
                    <mxGeometry relative="1" as="geometry"/>
                </mxCell>
                <mxCell id="PqSuvPUhHEyQhevZ37n3-7" value="" style="rhombus;fontColor=#000000;strokeColor=#000000;fillColor=#FFFFFF;" vertex="1" parent="xFaBLY0nuqhi4tWlqlkD-1">
                    <mxGeometry x="310" y="685" width="30" height="30" as="geometry"/>
                </mxCell>
                <mxCell id="PqSuvPUhHEyQhevZ37n3-15" style="edgeStyle=none;html=1;exitX=0.5;exitY=1;exitDx=0;exitDy=0;entryX=0.5;entryY=0;entryDx=0;entryDy=0;fontColor=#000000;strokeColor=#000000;" edge="1" parent="xFaBLY0nuqhi4tWlqlkD-1" source="PqSuvPUhHEyQhevZ37n3-10" target="PqSuvPUhHEyQhevZ37n3-14">
                    <mxGeometry relative="1" as="geometry"/>
                </mxCell>
                <mxCell id="PqSuvPUhHEyQhevZ37n3-10" value="Hiển thị kết quả" style="html=1;strokeColor=#000000;fillColor=#FFFFFF;fontColor=#000000;" vertex="1" parent="xFaBLY0nuqhi4tWlqlkD-1">
                    <mxGeometry x="270" y="760" width="110" height="40" as="geometry"/>
                </mxCell>
                <mxCell id="PqSuvPUhHEyQhevZ37n3-12" value="Yes" style="text;align=center;fontStyle=1;verticalAlign=middle;spacingLeft=3;spacingRight=3;strokeColor=none;rotatable=0;points=[[0,0.5],[1,0.5]];portConstraint=eastwest;fontColor=#000000;fillColor=#FFFFFF;" vertex="1" parent="xFaBLY0nuqhi4tWlqlkD-1">
                    <mxGeometry x="290" y="715" width="30" height="26" as="geometry"/>
                </mxCell>
                <mxCell id="PqSuvPUhHEyQhevZ37n3-13" value="No" style="text;align=center;fontStyle=1;verticalAlign=middle;spacingLeft=3;spacingRight=3;strokeColor=none;rotatable=0;points=[[0,0.5],[1,0.5]];portConstraint=eastwest;fontColor=#000000;fillColor=#FFFFFF;" vertex="1" parent="xFaBLY0nuqhi4tWlqlkD-1">
                    <mxGeometry x="330" y="659" width="30" height="26" as="geometry"/>
                </mxCell>
                <mxCell id="PqSuvPUhHEyQhevZ37n3-14" value="" style="ellipse;html=1;shape=endState;fillColor=#000000;strokeColor=#000000;fontColor=#000000;" vertex="1" parent="xFaBLY0nuqhi4tWlqlkD-1">
                    <mxGeometry x="310" y="840" width="30" height="30" as="geometry"/>
                </mxCell>
            </root>
        </mxGraphModel>
    </diagram>
    <diagram id="L-8YfNh3r64y2dIXBQh7" name="Sơ đồ hoạt động - QL phòng">
        <mxGraphModel dx="1118" dy="828" grid="1" gridSize="10" guides="1" tooltips="1" connect="1" arrows="1" fold="1" page="1" pageScale="1" pageWidth="827" pageHeight="1169" background="#ffffff" math="0" shadow="0">
            <root>
                <mxCell id="K4LU8Uki43zV0ckvcQOq-0"/>
                <mxCell id="K4LU8Uki43zV0ckvcQOq-1" parent="K4LU8Uki43zV0ckvcQOq-0"/>
                <mxCell id="0" value="" style="ellipse;fillColor=#000000;strokeColor=none;" vertex="1" parent="K4LU8Uki43zV0ckvcQOq-1">
                    <mxGeometry x="370" y="10" width="30" height="30" as="geometry"/>
                </mxCell>
                <mxCell id="2" value="Quản lý phòng" style="html=1;strokeColor=#000000;fillColor=#FFFFFF;fontColor=#000000;" vertex="1" parent="K4LU8Uki43zV0ckvcQOq-1">
                    <mxGeometry x="330" y="80" width="110" height="40" as="geometry"/>
                </mxCell>
                <mxCell id="3" value="" style="endArrow=open;endFill=1;endSize=12;html=1;fontColor=#000000;exitX=0.5;exitY=1;exitDx=0;exitDy=0;strokeColor=#000000;entryX=0.5;entryY=0;entryDx=0;entryDy=0;" edge="1" parent="K4LU8Uki43zV0ckvcQOq-1" source="0" target="2">
                    <mxGeometry width="160" relative="1" as="geometry">
                        <mxPoint x="330" y="320" as="sourcePoint"/>
                        <mxPoint x="490" y="320" as="targetPoint"/>
                    </mxGeometry>
                </mxCell>
                <mxCell id="4" value="" style="endArrow=none;startArrow=none;endFill=0;startFill=0;endSize=8;html=1;verticalAlign=bottom;labelBackgroundColor=none;strokeWidth=3;fontColor=#000000;strokeColor=#000000;" edge="1" parent="K4LU8Uki43zV0ckvcQOq-1">
                    <mxGeometry width="160" relative="1" as="geometry">
                        <mxPoint x="320" y="250" as="sourcePoint"/>
                        <mxPoint x="610" y="250" as="targetPoint"/>
                    </mxGeometry>
                </mxCell>
                <mxCell id="5" value="Thêm phòng" style="html=1;strokeColor=#000000;fillColor=#FFFFFF;fontColor=#000000;" vertex="1" parent="K4LU8Uki43zV0ckvcQOq-1">
                    <mxGeometry x="160" y="180" width="110" height="40" as="geometry"/>
                </mxCell>
                <mxCell id="6" value="Xóa phòng" style="html=1;strokeColor=#000000;fillColor=#FFFFFF;fontColor=#000000;" vertex="1" parent="K4LU8Uki43zV0ckvcQOq-1">
                    <mxGeometry x="490" y="290" width="110" height="40" as="geometry"/>
                </mxCell>
                <mxCell id="7" value="Sửa TT phòng" style="html=1;strokeColor=#000000;fillColor=#FFFFFF;fontColor=#000000;" vertex="1" parent="K4LU8Uki43zV0ckvcQOq-1">
                    <mxGeometry x="330" y="290" width="110" height="40" as="geometry"/>
                </mxCell>
                <mxCell id="8" value="" style="endArrow=open;endFill=1;endSize=12;html=1;fontColor=#000000;exitX=0.5;exitY=1;exitDx=0;exitDy=0;strokeColor=#000000;" edge="1" parent="K4LU8Uki43zV0ckvcQOq-1" source="2">
                    <mxGeometry width="160" relative="1" as="geometry">
                        <mxPoint x="395" y="50" as="sourcePoint"/>
                        <mxPoint x="385" y="150" as="targetPoint"/>
                    </mxGeometry>
                </mxCell>
                <mxCell id="10" value="" style="endArrow=open;endFill=1;endSize=12;html=1;fontColor=#000000;strokeColor=#000000;entryX=0.5;entryY=0;entryDx=0;entryDy=0;" edge="1" parent="K4LU8Uki43zV0ckvcQOq-1" target="7">
                    <mxGeometry width="160" relative="1" as="geometry">
                        <mxPoint x="385" y="250" as="sourcePoint"/>
                        <mxPoint x="405" y="270" as="targetPoint"/>
                    </mxGeometry>
                </mxCell>
                <mxCell id="11" value="" style="endArrow=open;endFill=1;endSize=12;html=1;fontColor=#000000;strokeColor=#000000;entryX=0.5;entryY=0;entryDx=0;entryDy=0;" edge="1" parent="K4LU8Uki43zV0ckvcQOq-1" target="6">
                    <mxGeometry width="160" relative="1" as="geometry">
                        <mxPoint x="545" y="250" as="sourcePoint"/>
                        <mxPoint x="415" y="280" as="targetPoint"/>
                    </mxGeometry>
                </mxCell>
                <mxCell id="12" value="Lấy DS phòng" style="html=1;strokeColor=#000000;fillColor=#FFFFFF;fontColor=#000000;" vertex="1" parent="K4LU8Uki43zV0ckvcQOq-1">
                    <mxGeometry x="410" y="180" width="110" height="40" as="geometry"/>
                </mxCell>
                <mxCell id="14" value="" style="endArrow=open;endFill=1;endSize=12;html=1;fontColor=#000000;exitX=0.5;exitY=1;exitDx=0;exitDy=0;strokeColor=#000000;" edge="1" parent="K4LU8Uki43zV0ckvcQOq-1" source="12">
                    <mxGeometry width="160" relative="1" as="geometry">
                        <mxPoint x="395" y="130" as="sourcePoint"/>
                        <mxPoint x="465" y="250" as="targetPoint"/>
                    </mxGeometry>
                </mxCell>
                <mxCell id="68" style="edgeStyle=none;html=1;exitX=0;exitY=0.5;exitDx=0;exitDy=0;fontColor=#000000;strokeColor=#000000;" edge="1" parent="K4LU8Uki43zV0ckvcQOq-1" source="16">
                    <mxGeometry relative="1" as="geometry">
                        <mxPoint x="80" y="500" as="targetPoint"/>
                        <Array as="points">
                            <mxPoint x="80" y="390"/>
                        </Array>
                    </mxGeometry>
                </mxCell>
                <mxCell id="16" value="Nhập thông tin" style="html=1;strokeColor=#000000;fillColor=#FFFFFF;fontColor=#000000;" vertex="1" parent="K4LU8Uki43zV0ckvcQOq-1">
                    <mxGeometry x="160" y="370" width="110" height="40" as="geometry"/>
                </mxCell>
                <mxCell id="69" style="edgeStyle=none;html=1;exitX=0.5;exitY=1;exitDx=0;exitDy=0;fontColor=#000000;strokeColor=#000000;" edge="1" parent="K4LU8Uki43zV0ckvcQOq-1" source="17">
                    <mxGeometry relative="1" as="geometry">
                        <mxPoint x="150" y="500" as="targetPoint"/>
                        <Array as="points">
                            <mxPoint x="385" y="440"/>
                            <mxPoint x="150" y="440"/>
                            <mxPoint x="150" y="480"/>
                        </Array>
                    </mxGeometry>
                </mxCell>
                <mxCell id="17" value="Sửa thông tin" style="html=1;strokeColor=#000000;fillColor=#FFFFFF;fontColor=#000000;" vertex="1" parent="K4LU8Uki43zV0ckvcQOq-1">
                    <mxGeometry x="330" y="370" width="110" height="40" as="geometry"/>
                </mxCell>
                <mxCell id="35" style="edgeStyle=none;html=1;exitX=0.5;exitY=1;exitDx=0;exitDy=0;entryX=0.5;entryY=0;entryDx=0;entryDy=0;fontColor=#000000;strokeColor=#000000;" edge="1" parent="K4LU8Uki43zV0ckvcQOq-1" source="18" target="23">
                    <mxGeometry relative="1" as="geometry"/>
                </mxCell>
                <mxCell id="18" value="Xác nhận" style="html=1;strokeColor=#000000;fillColor=#FFFFFF;fontColor=#000000;" vertex="1" parent="K4LU8Uki43zV0ckvcQOq-1">
                    <mxGeometry x="490" y="370" width="110" height="40" as="geometry"/>
                </mxCell>
                <mxCell id="76" style="edgeStyle=none;html=1;exitX=0.5;exitY=1;exitDx=0;exitDy=0;entryX=0.5;entryY=0;entryDx=0;entryDy=0;fontColor=#000000;strokeColor=#000000;" edge="1" parent="K4LU8Uki43zV0ckvcQOq-1" source="19" target="75">
                    <mxGeometry relative="1" as="geometry"/>
                </mxCell>
                <mxCell id="19" value="Kiểm tra thông tin" style="html=1;strokeColor=#000000;fillColor=#FFFFFF;fontColor=#000000;" vertex="1" parent="K4LU8Uki43zV0ckvcQOq-1">
                    <mxGeometry x="60" y="530" width="110" height="40" as="geometry"/>
                </mxCell>
                <mxCell id="20" value="Hiển thị kết quả" style="html=1;strokeColor=#000000;fillColor=#FFFFFF;fontColor=#000000;" vertex="1" parent="K4LU8Uki43zV0ckvcQOq-1">
                    <mxGeometry x="290" y="750" width="110" height="40" as="geometry"/>
                </mxCell>
                <mxCell id="21" value="" style="endArrow=none;startArrow=none;endFill=0;startFill=0;endSize=8;html=1;verticalAlign=bottom;labelBackgroundColor=none;strokeWidth=3;fontColor=#000000;strokeColor=#000000;" edge="1" parent="K4LU8Uki43zV0ckvcQOq-1">
                    <mxGeometry width="160" relative="1" as="geometry">
                        <mxPoint x="290" y="709" as="sourcePoint"/>
                        <mxPoint x="400" y="709" as="targetPoint"/>
                        <Array as="points"/>
                    </mxGeometry>
                </mxCell>
                <mxCell id="72" style="edgeStyle=none;html=1;exitX=0.5;exitY=0;exitDx=0;exitDy=0;entryX=0.5;entryY=1;entryDx=0;entryDy=0;fontColor=#000000;strokeColor=#000000;" edge="1" parent="K4LU8Uki43zV0ckvcQOq-1" source="22" target="71">
                    <mxGeometry relative="1" as="geometry"/>
                </mxCell>
                <mxCell id="22" value="Báo lỗi" style="html=1;strokeColor=#000000;fillColor=#FFFFFF;fontColor=#000000;" vertex="1" parent="K4LU8Uki43zV0ckvcQOq-1">
                    <mxGeometry x="250" y="598" width="110" height="40" as="geometry"/>
                </mxCell>
                <mxCell id="33" style="edgeStyle=none;html=1;exitX=0;exitY=0.5;exitDx=0;exitDy=0;fontColor=#000000;strokeColor=#000000;" edge="1" parent="K4LU8Uki43zV0ckvcQOq-1" source="23">
                    <mxGeometry relative="1" as="geometry">
                        <mxPoint x="380" y="710" as="targetPoint"/>
                        <Array as="points">
                            <mxPoint x="380" y="623"/>
                            <mxPoint x="380" y="680"/>
                        </Array>
                    </mxGeometry>
                </mxCell>
                <mxCell id="61" style="edgeStyle=none;html=1;exitX=0.5;exitY=1;exitDx=0;exitDy=0;fontColor=#000000;strokeColor=#000000;" edge="1" parent="K4LU8Uki43zV0ckvcQOq-1" source="23">
                    <mxGeometry relative="1" as="geometry">
                        <mxPoint x="545" y="830" as="targetPoint"/>
                    </mxGeometry>
                </mxCell>
                <mxCell id="23" value="" style="rhombus;fontColor=#000000;strokeColor=#000000;fillColor=#FFFFFF;" vertex="1" parent="K4LU8Uki43zV0ckvcQOq-1">
                    <mxGeometry x="530" y="608" width="30" height="30" as="geometry"/>
                </mxCell>
                <mxCell id="25" value="" style="ellipse;html=1;shape=endState;fillColor=#000000;strokeColor=#000000;fontColor=#000000;" vertex="1" parent="K4LU8Uki43zV0ckvcQOq-1">
                    <mxGeometry x="414" y="860" width="30" height="30" as="geometry"/>
                </mxCell>
                <mxCell id="27" value="" style="endArrow=open;endFill=1;endSize=12;html=1;fontColor=#000000;strokeColor=#000000;exitX=0.5;exitY=1;exitDx=0;exitDy=0;" edge="1" parent="K4LU8Uki43zV0ckvcQOq-1" source="20">
                    <mxGeometry width="160" relative="1" as="geometry">
                        <mxPoint x="385" y="370" as="sourcePoint"/>
                        <mxPoint x="345" y="830" as="targetPoint"/>
                    </mxGeometry>
                </mxCell>
                <mxCell id="28" value="" style="endArrow=open;endFill=1;endSize=12;html=1;fontColor=#000000;strokeColor=#000000;entryX=0.5;entryY=0;entryDx=0;entryDy=0;exitX=0.5;exitY=1;exitDx=0;exitDy=0;" edge="1" parent="K4LU8Uki43zV0ckvcQOq-1" source="5" target="16">
                    <mxGeometry width="160" relative="1" as="geometry">
                        <mxPoint x="395" y="770" as="sourcePoint"/>
                        <mxPoint x="395" y="820" as="targetPoint"/>
                    </mxGeometry>
                </mxCell>
                <mxCell id="29" value="" style="endArrow=open;endFill=1;endSize=12;html=1;fontColor=#000000;strokeColor=#000000;entryX=0.5;entryY=0;entryDx=0;entryDy=0;exitX=0.5;exitY=1;exitDx=0;exitDy=0;" edge="1" parent="K4LU8Uki43zV0ckvcQOq-1" source="7" target="17">
                    <mxGeometry width="160" relative="1" as="geometry">
                        <mxPoint x="225" y="340" as="sourcePoint"/>
                        <mxPoint x="225" y="380" as="targetPoint"/>
                    </mxGeometry>
                </mxCell>
                <mxCell id="30" value="" style="endArrow=open;endFill=1;endSize=12;html=1;fontColor=#000000;strokeColor=#000000;entryX=0.5;entryY=0;entryDx=0;entryDy=0;exitX=0.5;exitY=1;exitDx=0;exitDy=0;" edge="1" parent="K4LU8Uki43zV0ckvcQOq-1" source="6" target="18">
                    <mxGeometry width="160" relative="1" as="geometry">
                        <mxPoint x="235" y="350" as="sourcePoint"/>
                        <mxPoint x="235" y="390" as="targetPoint"/>
                    </mxGeometry>
                </mxCell>
                <mxCell id="36" value="No" style="text;align=center;fontStyle=1;verticalAlign=middle;spacingLeft=3;spacingRight=3;strokeColor=none;rotatable=0;points=[[0,0.5],[1,0.5]];portConstraint=eastwest;fontColor=#000000;fillColor=#FFFFFF;" vertex="1" parent="K4LU8Uki43zV0ckvcQOq-1">
                    <mxGeometry x="550" y="638" width="30" height="26" as="geometry"/>
                </mxCell>
                <mxCell id="37" value="Yes" style="text;align=center;fontStyle=1;verticalAlign=middle;spacingLeft=3;spacingRight=3;strokeColor=none;rotatable=0;points=[[0,0.5],[1,0.5]];portConstraint=eastwest;fontColor=#000000;fillColor=#FFFFFF;" vertex="1" parent="K4LU8Uki43zV0ckvcQOq-1">
                    <mxGeometry x="500" y="590" width="30" height="26" as="geometry"/>
                </mxCell>
                <mxCell id="49" style="edgeStyle=none;html=1;entryX=0.5;entryY=0;entryDx=0;entryDy=0;fontColor=#000000;strokeColor=#000000;" edge="1" parent="K4LU8Uki43zV0ckvcQOq-1" target="20">
                    <mxGeometry relative="1" as="geometry">
                        <mxPoint x="345" y="710" as="sourcePoint"/>
                        <mxPoint x="295" y="705" as="targetPoint"/>
                    </mxGeometry>
                </mxCell>
                <mxCell id="51" value="" style="endArrow=none;startArrow=none;endFill=0;startFill=0;endSize=8;html=1;verticalAlign=bottom;labelBackgroundColor=none;strokeWidth=3;fontColor=#000000;strokeColor=#000000;" edge="1" parent="K4LU8Uki43zV0ckvcQOq-1">
                    <mxGeometry width="160" relative="1" as="geometry">
                        <mxPoint x="115" y="150" as="sourcePoint"/>
                        <mxPoint x="655" y="150" as="targetPoint"/>
                    </mxGeometry>
                </mxCell>
                <mxCell id="52" value="" style="endArrow=open;endFill=1;endSize=12;html=1;fontColor=#000000;strokeColor=#000000;entryX=0.5;entryY=0;entryDx=0;entryDy=0;" edge="1" parent="K4LU8Uki43zV0ckvcQOq-1" target="5">
                    <mxGeometry width="160" relative="1" as="geometry">
                        <mxPoint x="215" y="150" as="sourcePoint"/>
                        <mxPoint x="225" y="380" as="targetPoint"/>
                    </mxGeometry>
                </mxCell>
                <mxCell id="53" value="" style="endArrow=open;endFill=1;endSize=12;html=1;fontColor=#000000;strokeColor=#000000;entryX=0.5;entryY=0;entryDx=0;entryDy=0;" edge="1" parent="K4LU8Uki43zV0ckvcQOq-1" target="12">
                    <mxGeometry width="160" relative="1" as="geometry">
                        <mxPoint x="465" y="150" as="sourcePoint"/>
                        <mxPoint x="235" y="390" as="targetPoint"/>
                    </mxGeometry>
                </mxCell>
                <mxCell id="59" value="" style="endArrow=none;startArrow=none;endFill=0;startFill=0;endSize=8;html=1;verticalAlign=bottom;labelBackgroundColor=none;strokeWidth=3;fontColor=#000000;strokeColor=#000000;exitX=1;exitY=0.5;exitDx=0;exitDy=0;entryX=0;entryY=0.5;entryDx=0;entryDy=0;" edge="1" parent="K4LU8Uki43zV0ckvcQOq-1" source="16" target="17">
                    <mxGeometry width="160" relative="1" as="geometry">
                        <mxPoint x="160" y="370" as="sourcePoint"/>
                        <mxPoint x="440" y="370" as="targetPoint"/>
                        <Array as="points"/>
                    </mxGeometry>
                </mxCell>
                <mxCell id="60" value="" style="endArrow=none;startArrow=none;endFill=0;startFill=0;endSize=8;html=1;verticalAlign=bottom;labelBackgroundColor=none;strokeWidth=3;fontColor=#000000;strokeColor=#000000;" edge="1" parent="K4LU8Uki43zV0ckvcQOq-1">
                    <mxGeometry width="160" relative="1" as="geometry">
                        <mxPoint x="290" y="830" as="sourcePoint"/>
                        <mxPoint x="560" y="830" as="targetPoint"/>
                        <Array as="points"/>
                    </mxGeometry>
                </mxCell>
                <mxCell id="62" value="" style="endArrow=open;endFill=1;endSize=12;html=1;fontColor=#000000;strokeColor=#000000;entryX=0.5;entryY=0;entryDx=0;entryDy=0;" edge="1" parent="K4LU8Uki43zV0ckvcQOq-1" target="25">
                    <mxGeometry width="160" relative="1" as="geometry">
                        <mxPoint x="429" y="830" as="sourcePoint"/>
                        <mxPoint x="385" y="940" as="targetPoint"/>
                    </mxGeometry>
                </mxCell>
                <mxCell id="67" value="" style="endArrow=none;startArrow=none;endFill=0;startFill=0;endSize=8;html=1;verticalAlign=bottom;labelBackgroundColor=none;strokeWidth=3;fontColor=#000000;strokeColor=#000000;" edge="1" parent="K4LU8Uki43zV0ckvcQOq-1">
                    <mxGeometry width="160" relative="1" as="geometry">
                        <mxPoint x="60" y="500" as="sourcePoint"/>
                        <mxPoint x="170" y="500" as="targetPoint"/>
                    </mxGeometry>
                </mxCell>
                <mxCell id="73" style="edgeStyle=none;html=1;exitX=0.5;exitY=0;exitDx=0;exitDy=0;fontColor=#000000;strokeColor=#000000;" edge="1" parent="K4LU8Uki43zV0ckvcQOq-1" source="71">
                    <mxGeometry relative="1" as="geometry">
                        <mxPoint x="305" y="390" as="targetPoint"/>
                    </mxGeometry>
                </mxCell>
                <mxCell id="71" value="Nhập lại" style="html=1;strokeColor=#000000;fillColor=#FFFFFF;fontColor=#000000;" vertex="1" parent="K4LU8Uki43zV0ckvcQOq-1">
                    <mxGeometry x="250" y="510" width="110" height="40" as="geometry"/>
                </mxCell>
                <mxCell id="74" style="edgeStyle=none;html=1;entryX=0.5;entryY=0;entryDx=0;entryDy=0;fontColor=#000000;strokeColor=#000000;" edge="1" parent="K4LU8Uki43zV0ckvcQOq-1" target="19">
                    <mxGeometry relative="1" as="geometry">
                        <mxPoint x="115" y="500" as="sourcePoint"/>
                        <mxPoint x="315" y="560" as="targetPoint"/>
                    </mxGeometry>
                </mxCell>
                <mxCell id="77" style="edgeStyle=none;html=1;exitX=1;exitY=0.5;exitDx=0;exitDy=0;entryX=0;entryY=0.5;entryDx=0;entryDy=0;fontColor=#000000;strokeColor=#000000;" edge="1" parent="K4LU8Uki43zV0ckvcQOq-1" source="75" target="22">
                    <mxGeometry relative="1" as="geometry">
                        <Array as="points"/>
                    </mxGeometry>
                </mxCell>
                <mxCell id="78" style="edgeStyle=none;html=1;exitX=0.5;exitY=1;exitDx=0;exitDy=0;fontColor=#000000;strokeColor=#000000;" edge="1" parent="K4LU8Uki43zV0ckvcQOq-1" source="75">
                    <mxGeometry relative="1" as="geometry">
                        <mxPoint x="310" y="710" as="targetPoint"/>
                        <Array as="points">
                            <mxPoint x="115" y="680"/>
                            <mxPoint x="310" y="680"/>
                        </Array>
                    </mxGeometry>
                </mxCell>
                <mxCell id="75" value="" style="rhombus;fontColor=#000000;strokeColor=#000000;fillColor=#FFFFFF;" vertex="1" parent="K4LU8Uki43zV0ckvcQOq-1">
                    <mxGeometry x="100" y="603" width="30" height="30" as="geometry"/>
                </mxCell>
                <mxCell id="79" value="Yes" style="text;align=center;fontStyle=1;verticalAlign=middle;spacingLeft=3;spacingRight=3;strokeColor=none;rotatable=0;points=[[0,0.5],[1,0.5]];portConstraint=eastwest;fontColor=#000000;fillColor=#FFFFFF;" vertex="1" parent="K4LU8Uki43zV0ckvcQOq-1">
                    <mxGeometry x="80" y="633" width="30" height="26" as="geometry"/>
                </mxCell>
                <mxCell id="80" value="No" style="text;align=center;fontStyle=1;verticalAlign=middle;spacingLeft=3;spacingRight=3;strokeColor=none;rotatable=0;points=[[0,0.5],[1,0.5]];portConstraint=eastwest;fontColor=#000000;fillColor=#FFFFFF;" vertex="1" parent="K4LU8Uki43zV0ckvcQOq-1">
                    <mxGeometry x="130" y="585" width="30" height="26" as="geometry"/>
                </mxCell>
            </root>
        </mxGraphModel>
    </diagram>
    <diagram id="RdoCHl6jqVCVibi7BJ3q" name="Class">
        <mxGraphModel dx="1118" dy="828" grid="1" gridSize="10" guides="1" tooltips="1" connect="1" arrows="1" fold="1" page="1" pageScale="1" pageWidth="827" pageHeight="1169" background="#ffffff" math="0" shadow="0">
            <root>
                <mxCell id="gyLW2OSuYjQNLze5Pbcd-0"/>
                <mxCell id="gyLW2OSuYjQNLze5Pbcd-1" parent="gyLW2OSuYjQNLze5Pbcd-0"/>
                <mxCell id="gyLW2OSuYjQNLze5Pbcd-2" value="Home" style="swimlane;fontStyle=1;align=center;verticalAlign=top;childLayout=stackLayout;horizontal=1;startSize=26;horizontalStack=0;resizeParent=1;resizeParentMax=0;resizeLast=0;collapsible=1;marginBottom=0;fontColor=#000000;strokeColor=#000000;fillColor=#FFFFFF;" parent="gyLW2OSuYjQNLze5Pbcd-1" vertex="1">
                    <mxGeometry x="240" y="200" width="160" height="52" as="geometry"/>
                </mxCell>
                <mxCell id="gyLW2OSuYjQNLze5Pbcd-5" value="+ checkAdmin() : bool" style="text;strokeColor=none;fillColor=none;align=left;verticalAlign=top;spacingLeft=4;spacingRight=4;overflow=hidden;rotatable=0;points=[[0,0.5],[1,0.5]];portConstraint=eastwest;fontColor=#000000;" parent="gyLW2OSuYjQNLze5Pbcd-2" vertex="1">
                    <mxGeometry y="26" width="160" height="26" as="geometry"/>
                </mxCell>
                <mxCell id="gyLW2OSuYjQNLze5Pbcd-12" value="Room" style="swimlane;fontStyle=0;childLayout=stackLayout;horizontal=1;startSize=26;fillColor=none;horizontalStack=0;resizeParent=1;resizeParentMax=0;resizeLast=0;collapsible=1;marginBottom=0;fontColor=#000000;strokeColor=#000000;" parent="gyLW2OSuYjQNLze5Pbcd-1" vertex="1">
                    <mxGeometry x="520" y="40" width="280" height="338" as="geometry"/>
                </mxCell>
                <mxCell id="gyLW2OSuYjQNLze5Pbcd-13" value="+ getListRoom() : array" style="text;strokeColor=none;fillColor=none;align=left;verticalAlign=top;spacingLeft=4;spacingRight=4;overflow=hidden;rotatable=0;points=[[0,0.5],[1,0.5]];portConstraint=eastwest;fontColor=#000000;" parent="gyLW2OSuYjQNLze5Pbcd-12" vertex="1">
                    <mxGeometry y="26" width="280" height="26" as="geometry"/>
                </mxCell>
                <mxCell id="gyLW2OSuYjQNLze5Pbcd-14" value="+ getListRoomRent() : array" style="text;strokeColor=none;fillColor=none;align=left;verticalAlign=top;spacingLeft=4;spacingRight=4;overflow=hidden;rotatable=0;points=[[0,0.5],[1,0.5]];portConstraint=eastwest;fontColor=#000000;" parent="gyLW2OSuYjQNLze5Pbcd-12" vertex="1">
                    <mxGeometry y="52" width="280" height="26" as="geometry"/>
                </mxCell>
                <mxCell id="gyLW2OSuYjQNLze5Pbcd-16" value="+ deleteRoomRent(id) : void&#10;" style="text;strokeColor=none;fillColor=none;align=left;verticalAlign=top;spacingLeft=4;spacingRight=4;overflow=hidden;rotatable=0;points=[[0,0.5],[1,0.5]];portConstraint=eastwest;fontColor=#000000;" parent="gyLW2OSuYjQNLze5Pbcd-12" vertex="1">
                    <mxGeometry y="78" width="280" height="26" as="geometry"/>
                </mxCell>
                <mxCell id="gyLW2OSuYjQNLze5Pbcd-17" value="+ checkRoomID(id) : void" style="text;strokeColor=none;fillColor=none;align=left;verticalAlign=top;spacingLeft=4;spacingRight=4;overflow=hidden;rotatable=0;points=[[0,0.5],[1,0.5]];portConstraint=eastwest;fontColor=#000000;" parent="gyLW2OSuYjQNLze5Pbcd-12" vertex="1">
                    <mxGeometry y="104" width="280" height="26" as="geometry"/>
                </mxCell>
                <mxCell id="gyLW2OSuYjQNLze5Pbcd-18" value="+ rentRoom(room_id, date_hire, rent_shift) : void" style="text;strokeColor=none;fillColor=none;align=left;verticalAlign=top;spacingLeft=4;spacingRight=4;overflow=hidden;rotatable=0;points=[[0,0.5],[1,0.5]];portConstraint=eastwest;fontColor=#000000;" parent="gyLW2OSuYjQNLze5Pbcd-12" vertex="1">
                    <mxGeometry y="130" width="280" height="26" as="geometry"/>
                </mxCell>
                <mxCell id="gyLW2OSuYjQNLze5Pbcd-15" value="+ getRevenueToday() : int" style="text;strokeColor=none;fillColor=none;align=left;verticalAlign=top;spacingLeft=4;spacingRight=4;overflow=hidden;rotatable=0;points=[[0,0.5],[1,0.5]];portConstraint=eastwest;fontColor=#000000;" parent="gyLW2OSuYjQNLze5Pbcd-12" vertex="1">
                    <mxGeometry y="156" width="280" height="26" as="geometry"/>
                </mxCell>
                <mxCell id="gyLW2OSuYjQNLze5Pbcd-19" value="+ getRevenueMonth() : int" style="text;strokeColor=none;fillColor=none;align=left;verticalAlign=top;spacingLeft=4;spacingRight=4;overflow=hidden;rotatable=0;points=[[0,0.5],[1,0.5]];portConstraint=eastwest;fontColor=#000000;" parent="gyLW2OSuYjQNLze5Pbcd-12" vertex="1">
                    <mxGeometry y="182" width="280" height="26" as="geometry"/>
                </mxCell>
                <mxCell id="gyLW2OSuYjQNLze5Pbcd-20" value="+ getRevenueRoom() : int" style="text;strokeColor=none;fillColor=none;align=left;verticalAlign=top;spacingLeft=4;spacingRight=4;overflow=hidden;rotatable=0;points=[[0,0.5],[1,0.5]];portConstraint=eastwest;fontColor=#000000;" parent="gyLW2OSuYjQNLze5Pbcd-12" vertex="1">
                    <mxGeometry y="208" width="280" height="26" as="geometry"/>
                </mxCell>
                <mxCell id="gyLW2OSuYjQNLze5Pbcd-22" value="+ getStatisticRoom() : array" style="text;strokeColor=none;fillColor=none;align=left;verticalAlign=top;spacingLeft=4;spacingRight=4;overflow=hidden;rotatable=0;points=[[0,0.5],[1,0.5]];portConstraint=eastwest;fontColor=#000000;" parent="gyLW2OSuYjQNLze5Pbcd-12" vertex="1">
                    <mxGeometry y="234" width="280" height="26" as="geometry"/>
                </mxCell>
                <mxCell id="gyLW2OSuYjQNLze5Pbcd-21" value="+ deleteRoom() : void" style="text;strokeColor=none;fillColor=none;align=left;verticalAlign=top;spacingLeft=4;spacingRight=4;overflow=hidden;rotatable=0;points=[[0,0.5],[1,0.5]];portConstraint=eastwest;fontColor=#000000;" parent="gyLW2OSuYjQNLze5Pbcd-12" vertex="1">
                    <mxGeometry y="260" width="280" height="26" as="geometry"/>
                </mxCell>
                <mxCell id="gyLW2OSuYjQNLze5Pbcd-23" value="+ updateRoom(id, name, size, rentCost) : void" style="text;strokeColor=none;fillColor=none;align=left;verticalAlign=top;spacingLeft=4;spacingRight=4;overflow=hidden;rotatable=0;points=[[0,0.5],[1,0.5]];portConstraint=eastwest;fontColor=#000000;" parent="gyLW2OSuYjQNLze5Pbcd-12" vertex="1">
                    <mxGeometry y="286" width="280" height="26" as="geometry"/>
                </mxCell>
                <mxCell id="gyLW2OSuYjQNLze5Pbcd-24" value="+ addRoom(name, size, rentCost) : void" style="text;strokeColor=none;fillColor=none;align=left;verticalAlign=top;spacingLeft=4;spacingRight=4;overflow=hidden;rotatable=0;points=[[0,0.5],[1,0.5]];portConstraint=eastwest;fontColor=#000000;" parent="gyLW2OSuYjQNLze5Pbcd-12" vertex="1">
                    <mxGeometry y="312" width="280" height="26" as="geometry"/>
                </mxCell>
                <mxCell id="gyLW2OSuYjQNLze5Pbcd-25" value="Shift" style="swimlane;fontStyle=0;childLayout=stackLayout;horizontal=1;startSize=26;fillColor=none;horizontalStack=0;resizeParent=1;resizeParentMax=0;resizeLast=0;collapsible=1;marginBottom=0;fontColor=#000000;strokeColor=#000000;" parent="gyLW2OSuYjQNLze5Pbcd-1" vertex="1">
                    <mxGeometry x="30" y="40" width="210" height="78" as="geometry"/>
                </mxCell>
                <mxCell id="gyLW2OSuYjQNLze5Pbcd-26" value="+ getListShift() : array" style="text;strokeColor=none;fillColor=none;align=left;verticalAlign=top;spacingLeft=4;spacingRight=4;overflow=hidden;rotatable=0;points=[[0,0.5],[1,0.5]];portConstraint=eastwest;fontColor=#000000;" parent="gyLW2OSuYjQNLze5Pbcd-25" vertex="1">
                    <mxGeometry y="26" width="210" height="26" as="geometry"/>
                </mxCell>
                <mxCell id="gyLW2OSuYjQNLze5Pbcd-27" value="+ getListShiftRent(room, date) : void" style="text;strokeColor=none;fillColor=none;align=left;verticalAlign=top;spacingLeft=4;spacingRight=4;overflow=hidden;rotatable=0;points=[[0,0.5],[1,0.5]];portConstraint=eastwest;fontColor=#000000;" parent="gyLW2OSuYjQNLze5Pbcd-25" vertex="1">
                    <mxGeometry y="52" width="210" height="26" as="geometry"/>
                </mxCell>
                <mxCell id="gyLW2OSuYjQNLze5Pbcd-29" value="User" style="swimlane;fontStyle=0;childLayout=stackLayout;horizontal=1;startSize=26;fillColor=none;horizontalStack=0;resizeParent=1;resizeParentMax=0;resizeLast=0;collapsible=1;marginBottom=0;fontColor=#000000;strokeColor=#000000;" parent="gyLW2OSuYjQNLze5Pbcd-1" vertex="1">
                    <mxGeometry x="40" y="400" width="420" height="286" as="geometry"/>
                </mxCell>
                <mxCell id="gyLW2OSuYjQNLze5Pbcd-30" value="+ login(username, password) : void" style="text;strokeColor=none;fillColor=none;align=left;verticalAlign=top;spacingLeft=4;spacingRight=4;overflow=hidden;rotatable=0;points=[[0,0.5],[1,0.5]];portConstraint=eastwest;fontColor=#000000;" parent="gyLW2OSuYjQNLze5Pbcd-29" vertex="1">
                    <mxGeometry y="26" width="420" height="26" as="geometry"/>
                </mxCell>
                <mxCell id="gyLW2OSuYjQNLze5Pbcd-31" value="+ register(username, password, name, phone, birthday, gender, role) : void" style="text;strokeColor=none;fillColor=none;align=left;verticalAlign=top;spacingLeft=4;spacingRight=4;overflow=hidden;rotatable=0;points=[[0,0.5],[1,0.5]];portConstraint=eastwest;fontColor=#000000;" parent="gyLW2OSuYjQNLze5Pbcd-29" vertex="1">
                    <mxGeometry y="52" width="420" height="26" as="geometry"/>
                </mxCell>
                <mxCell id="gyLW2OSuYjQNLze5Pbcd-33" value="+ logout() : void" style="text;strokeColor=none;fillColor=none;align=left;verticalAlign=top;spacingLeft=4;spacingRight=4;overflow=hidden;rotatable=0;points=[[0,0.5],[1,0.5]];portConstraint=eastwest;fontColor=#000000;" parent="gyLW2OSuYjQNLze5Pbcd-29" vertex="1">
                    <mxGeometry y="78" width="420" height="26" as="geometry"/>
                </mxCell>
                <mxCell id="gyLW2OSuYjQNLze5Pbcd-34" value="+ getProfile() : array" style="text;strokeColor=none;fillColor=none;align=left;verticalAlign=top;spacingLeft=4;spacingRight=4;overflow=hidden;rotatable=0;points=[[0,0.5],[1,0.5]];portConstraint=eastwest;fontColor=#000000;" parent="gyLW2OSuYjQNLze5Pbcd-29" vertex="1">
                    <mxGeometry y="104" width="420" height="26" as="geometry"/>
                </mxCell>
                <mxCell id="gyLW2OSuYjQNLze5Pbcd-32" value="+ updateProfile(data) : void" style="text;strokeColor=none;fillColor=none;align=left;verticalAlign=top;spacingLeft=4;spacingRight=4;overflow=hidden;rotatable=0;points=[[0,0.5],[1,0.5]];portConstraint=eastwest;fontColor=#000000;" parent="gyLW2OSuYjQNLze5Pbcd-29" vertex="1">
                    <mxGeometry y="130" width="420" height="26" as="geometry"/>
                </mxCell>
                <mxCell id="gyLW2OSuYjQNLze5Pbcd-35" value="+ isAdmin() : bool" style="text;strokeColor=none;fillColor=none;align=left;verticalAlign=top;spacingLeft=4;spacingRight=4;overflow=hidden;rotatable=0;points=[[0,0.5],[1,0.5]];portConstraint=eastwest;fontColor=#000000;" parent="gyLW2OSuYjQNLze5Pbcd-29" vertex="1">
                    <mxGeometry y="156" width="420" height="26" as="geometry"/>
                </mxCell>
                <mxCell id="gyLW2OSuYjQNLze5Pbcd-37" value="+ getAmountUserJoinThisWeek() : array" style="text;strokeColor=none;fillColor=none;align=left;verticalAlign=top;spacingLeft=4;spacingRight=4;overflow=hidden;rotatable=0;points=[[0,0.5],[1,0.5]];portConstraint=eastwest;fontColor=#000000;" parent="gyLW2OSuYjQNLze5Pbcd-29" vertex="1">
                    <mxGeometry y="182" width="420" height="26" as="geometry"/>
                </mxCell>
                <mxCell id="gyLW2OSuYjQNLze5Pbcd-36" value="+ getTotalUser() : int" style="text;strokeColor=none;fillColor=none;align=left;verticalAlign=top;spacingLeft=4;spacingRight=4;overflow=hidden;rotatable=0;points=[[0,0.5],[1,0.5]];portConstraint=eastwest;fontColor=#000000;" parent="gyLW2OSuYjQNLze5Pbcd-29" vertex="1">
                    <mxGeometry y="208" width="420" height="26" as="geometry"/>
                </mxCell>
                <mxCell id="gyLW2OSuYjQNLze5Pbcd-39" value="+ getListUser() : array" style="text;strokeColor=none;fillColor=none;align=left;verticalAlign=top;spacingLeft=4;spacingRight=4;overflow=hidden;rotatable=0;points=[[0,0.5],[1,0.5]];portConstraint=eastwest;fontColor=#000000;" parent="gyLW2OSuYjQNLze5Pbcd-29" vertex="1">
                    <mxGeometry y="234" width="420" height="26" as="geometry"/>
                </mxCell>
                <mxCell id="gyLW2OSuYjQNLze5Pbcd-38" value="+ deleteUser(id) : void" style="text;strokeColor=none;fillColor=none;align=left;verticalAlign=top;spacingLeft=4;spacingRight=4;overflow=hidden;rotatable=0;points=[[0,0.5],[1,0.5]];portConstraint=eastwest;fontColor=#000000;" parent="gyLW2OSuYjQNLze5Pbcd-29" vertex="1">
                    <mxGeometry y="260" width="420" height="26" as="geometry"/>
                </mxCell>
                <mxCell id="gyLW2OSuYjQNLze5Pbcd-43" value="Extends" style="endArrow=block;endSize=16;endFill=0;html=1;labelBackgroundColor=#FFFFFF;fontColor=#000000;strokeColor=#000000;exitX=0.5;exitY=0;exitDx=0;exitDy=0;entryX=0.081;entryY=1.077;entryDx=0;entryDy=0;entryPerimeter=0;" parent="gyLW2OSuYjQNLze5Pbcd-1" source="gyLW2OSuYjQNLze5Pbcd-29" target="gyLW2OSuYjQNLze5Pbcd-5" edge="1">
                    <mxGeometry width="160" relative="1" as="geometry">
                        <mxPoint x="330" y="320" as="sourcePoint"/>
                        <mxPoint x="490" y="320" as="targetPoint"/>
                    </mxGeometry>
                </mxCell>
                <mxCell id="gyLW2OSuYjQNLze5Pbcd-44" value="Extends" style="endArrow=block;endSize=16;endFill=0;html=1;labelBackgroundColor=#FFFFFF;fontColor=#000000;strokeColor=#000000;exitX=0;exitY=0.5;exitDx=0;exitDy=0;entryX=0.75;entryY=0;entryDx=0;entryDy=0;" parent="gyLW2OSuYjQNLze5Pbcd-1" source="gyLW2OSuYjQNLze5Pbcd-13" target="gyLW2OSuYjQNLze5Pbcd-2" edge="1">
                    <mxGeometry x="-0.4306" width="160" relative="1" as="geometry">
                        <mxPoint x="260" y="410" as="sourcePoint"/>
                        <mxPoint x="262.96000000000004" y="264.00199999999995" as="targetPoint"/>
                        <Array as="points">
                            <mxPoint x="360" y="79"/>
                        </Array>
                        <mxPoint as="offset"/>
                    </mxGeometry>
                </mxCell>
                <mxCell id="gyLW2OSuYjQNLze5Pbcd-45" value="Extends" style="endArrow=block;endSize=16;endFill=0;html=1;labelBackgroundColor=#FFFFFF;fontColor=#000000;strokeColor=#000000;exitX=1;exitY=0.5;exitDx=0;exitDy=0;entryX=0.5;entryY=0;entryDx=0;entryDy=0;" parent="gyLW2OSuYjQNLze5Pbcd-1" source="gyLW2OSuYjQNLze5Pbcd-26" target="gyLW2OSuYjQNLze5Pbcd-2" edge="1">
                    <mxGeometry x="-0.602" width="160" relative="1" as="geometry">
                        <mxPoint x="330" y="320" as="sourcePoint"/>
                        <mxPoint x="490" y="320" as="targetPoint"/>
                        <Array as="points">
                            <mxPoint x="320" y="79"/>
                        </Array>
                        <mxPoint as="offset"/>
                    </mxGeometry>
                </mxCell>
            </root>
        </mxGraphModel>
    </diagram>
    <diagram id="KjPtVYVstdNadeHunm6j" name="Usercase Admin">
        <mxGraphModel dx="1118" dy="828" grid="1" gridSize="10" guides="1" tooltips="1" connect="1" arrows="1" fold="1" page="1" pageScale="1" pageWidth="827" pageHeight="1169" background="#ffffff" math="0" shadow="0">
            <root>
                <mxCell id="53M8R1Ztt3jaLmPYGCeH-0"/>
                <mxCell id="53M8R1Ztt3jaLmPYGCeH-1" parent="53M8R1Ztt3jaLmPYGCeH-0"/>
                <mxCell id="4eVcWJ5UlR-3Z9uUQu4H-0" value="Admin" style="shape=umlActor;verticalLabelPosition=bottom;verticalAlign=top;html=1;fontColor=#000000;strokeColor=#000000;" vertex="1" parent="53M8R1Ztt3jaLmPYGCeH-1">
                    <mxGeometry x="10" y="340" width="30" height="60" as="geometry"/>
                </mxCell>
                <mxCell id="4eVcWJ5UlR-3Z9uUQu4H-1" value="Đăng nhập" style="ellipse;whiteSpace=wrap;html=1;fontColor=#000000;strokeColor=#000000;fillColor=#FFFFFF;" vertex="1" parent="53M8R1Ztt3jaLmPYGCeH-1">
                    <mxGeometry x="160" y="320" width="120" height="40" as="geometry"/>
                </mxCell>
                <mxCell id="4eVcWJ5UlR-3Z9uUQu4H-2" value="Đăng xuất" style="ellipse;whiteSpace=wrap;html=1;fontColor=#000000;strokeColor=#000000;fillColor=#FFFFFF;" vertex="1" parent="53M8R1Ztt3jaLmPYGCeH-1">
                    <mxGeometry x="360" y="320" width="120" height="40" as="geometry"/>
                </mxCell>
                <mxCell id="4eVcWJ5UlR-3Z9uUQu4H-3" value="" style="endArrow=open;endFill=1;endSize=12;html=1;fontColor=#000000;strokeColor=#000000;entryX=0;entryY=0.5;entryDx=0;entryDy=0;exitX=0.5;exitY=0.5;exitDx=0;exitDy=0;exitPerimeter=0;" edge="1" parent="53M8R1Ztt3jaLmPYGCeH-1" source="4eVcWJ5UlR-3Z9uUQu4H-0" target="4eVcWJ5UlR-3Z9uUQu4H-1">
                    <mxGeometry width="160" relative="1" as="geometry">
                        <mxPoint x="330" y="420" as="sourcePoint"/>
                        <mxPoint x="490" y="420" as="targetPoint"/>
                    </mxGeometry>
                </mxCell>
                <mxCell id="4eVcWJ5UlR-3Z9uUQu4H-4" value="Extends" style="endArrow=block;endSize=16;endFill=0;html=1;fontColor=#000000;strokeColor=#000000;exitX=0;exitY=0.5;exitDx=0;exitDy=0;labelBackgroundColor=#FFFFFF;entryX=1;entryY=0.5;entryDx=0;entryDy=0;" edge="1" parent="53M8R1Ztt3jaLmPYGCeH-1" source="4eVcWJ5UlR-3Z9uUQu4H-2" target="4eVcWJ5UlR-3Z9uUQu4H-1">
                    <mxGeometry width="160" relative="1" as="geometry">
                        <mxPoint x="330" y="420" as="sourcePoint"/>
                        <mxPoint x="490" y="320" as="targetPoint"/>
                    </mxGeometry>
                </mxCell>
                <mxCell id="4eVcWJ5UlR-3Z9uUQu4H-5" value="Xem thông tin&lt;br&gt;&amp;nbsp;thanh toán" style="ellipse;whiteSpace=wrap;html=1;fontColor=#000000;strokeColor=#000000;fillColor=#FFFFFF;" vertex="1" parent="53M8R1Ztt3jaLmPYGCeH-1">
                    <mxGeometry x="160" y="380" width="120" height="40" as="geometry"/>
                </mxCell>
                <mxCell id="4eVcWJ5UlR-3Z9uUQu4H-6" value="" style="endArrow=open;endFill=1;endSize=12;html=1;labelBackgroundColor=#FFFFFF;fontColor=#000000;strokeColor=#000000;exitX=0.5;exitY=0.5;exitDx=0;exitDy=0;exitPerimeter=0;entryX=0;entryY=0.5;entryDx=0;entryDy=0;" edge="1" parent="53M8R1Ztt3jaLmPYGCeH-1" source="4eVcWJ5UlR-3Z9uUQu4H-0" target="4eVcWJ5UlR-3Z9uUQu4H-5">
                    <mxGeometry width="160" relative="1" as="geometry">
                        <mxPoint x="330" y="420" as="sourcePoint"/>
                        <mxPoint x="490" y="420" as="targetPoint"/>
                    </mxGeometry>
                </mxCell>
                <mxCell id="4eVcWJ5UlR-3Z9uUQu4H-7" value="Xem thông tin &lt;br&gt;cá nhân" style="ellipse;whiteSpace=wrap;html=1;fontColor=#000000;strokeColor=#000000;fillColor=#FFFFFF;" vertex="1" parent="53M8R1Ztt3jaLmPYGCeH-1">
                    <mxGeometry x="160" y="240" width="120" height="40" as="geometry"/>
                </mxCell>
                <mxCell id="4eVcWJ5UlR-3Z9uUQu4H-8" value="Cập nhật thông tin&lt;br&gt;cá nhân" style="ellipse;whiteSpace=wrap;html=1;fontColor=#000000;strokeColor=#000000;fillColor=#FFFFFF;" vertex="1" parent="53M8R1Ztt3jaLmPYGCeH-1">
                    <mxGeometry x="160" y="150" width="120" height="40" as="geometry"/>
                </mxCell>
                <mxCell id="4eVcWJ5UlR-3Z9uUQu4H-9" value="" style="endArrow=open;endFill=1;endSize=12;html=1;labelBackgroundColor=#FFFFFF;fontColor=#000000;strokeColor=#000000;exitX=0.5;exitY=0.5;exitDx=0;exitDy=0;exitPerimeter=0;entryX=0;entryY=1;entryDx=0;entryDy=0;" edge="1" parent="53M8R1Ztt3jaLmPYGCeH-1" source="4eVcWJ5UlR-3Z9uUQu4H-0" target="4eVcWJ5UlR-3Z9uUQu4H-7">
                    <mxGeometry width="160" relative="1" as="geometry">
                        <mxPoint x="330" y="420" as="sourcePoint"/>
                        <mxPoint x="490" y="420" as="targetPoint"/>
                    </mxGeometry>
                </mxCell>
                <mxCell id="4eVcWJ5UlR-3Z9uUQu4H-10" value="Include" style="endArrow=block;endSize=16;endFill=0;html=1;labelBackgroundColor=#FFFFFF;fontColor=#000000;strokeColor=#000000;exitX=0.5;exitY=1;exitDx=0;exitDy=0;" edge="1" parent="53M8R1Ztt3jaLmPYGCeH-1" source="4eVcWJ5UlR-3Z9uUQu4H-8" target="4eVcWJ5UlR-3Z9uUQu4H-7">
                    <mxGeometry width="160" relative="1" as="geometry">
                        <mxPoint x="330" y="420" as="sourcePoint"/>
                        <mxPoint x="490" y="420" as="targetPoint"/>
                    </mxGeometry>
                </mxCell>
                <mxCell id="4eVcWJ5UlR-3Z9uUQu4H-11" value="Include" style="endArrow=block;endSize=16;endFill=0;html=1;labelBackgroundColor=#FFFFFF;fontColor=#000000;strokeColor=#000000;exitX=0.5;exitY=1;exitDx=0;exitDy=0;entryX=0.5;entryY=0;entryDx=0;entryDy=0;" edge="1" parent="53M8R1Ztt3jaLmPYGCeH-1" source="4eVcWJ5UlR-3Z9uUQu4H-7" target="4eVcWJ5UlR-3Z9uUQu4H-1">
                    <mxGeometry x="0.3333" width="160" relative="1" as="geometry">
                        <mxPoint x="430" y="440" as="sourcePoint"/>
                        <mxPoint x="350" y="440" as="targetPoint"/>
                        <Array as="points">
                            <mxPoint x="220" y="300"/>
                        </Array>
                        <mxPoint as="offset"/>
                    </mxGeometry>
                </mxCell>
                <mxCell id="4eVcWJ5UlR-3Z9uUQu4H-12" value="Thống kê" style="ellipse;whiteSpace=wrap;html=1;fontColor=#000000;strokeColor=#000000;fillColor=#FFFFFF;" vertex="1" parent="53M8R1Ztt3jaLmPYGCeH-1">
                    <mxGeometry x="160" y="440" width="120" height="40" as="geometry"/>
                </mxCell>
                <mxCell id="4eVcWJ5UlR-3Z9uUQu4H-13" value="" style="endArrow=open;endFill=1;endSize=12;html=1;labelBackgroundColor=#FFFFFF;fontColor=#000000;strokeColor=#000000;exitX=0.5;exitY=0.5;exitDx=0;exitDy=0;exitPerimeter=0;entryX=0;entryY=0.5;entryDx=0;entryDy=0;" edge="1" parent="53M8R1Ztt3jaLmPYGCeH-1" source="4eVcWJ5UlR-3Z9uUQu4H-0" target="4eVcWJ5UlR-3Z9uUQu4H-12">
                    <mxGeometry width="160" relative="1" as="geometry">
                        <mxPoint x="330" y="430" as="sourcePoint"/>
                        <mxPoint x="490" y="430" as="targetPoint"/>
                    </mxGeometry>
                </mxCell>
                <mxCell id="4eVcWJ5UlR-3Z9uUQu4H-14" value="Thống kê doanh thu" style="ellipse;whiteSpace=wrap;html=1;fontColor=#000000;strokeColor=#000000;fillColor=#FFFFFF;" vertex="1" parent="53M8R1Ztt3jaLmPYGCeH-1">
                    <mxGeometry x="360" y="390" width="120" height="40" as="geometry"/>
                </mxCell>
                <mxCell id="4eVcWJ5UlR-3Z9uUQu4H-15" value="Thống kê phòng" style="ellipse;whiteSpace=wrap;html=1;fontColor=#000000;strokeColor=#000000;fillColor=#FFFFFF;" vertex="1" parent="53M8R1Ztt3jaLmPYGCeH-1">
                    <mxGeometry x="360" y="440" width="120" height="40" as="geometry"/>
                </mxCell>
                <mxCell id="4eVcWJ5UlR-3Z9uUQu4H-16" value="" style="endArrow=open;endFill=1;endSize=12;html=1;labelBackgroundColor=#FFFFFF;fontColor=#000000;strokeColor=#000000;exitX=1;exitY=0.5;exitDx=0;exitDy=0;entryX=0;entryY=0.5;entryDx=0;entryDy=0;" edge="1" parent="53M8R1Ztt3jaLmPYGCeH-1" source="4eVcWJ5UlR-3Z9uUQu4H-12" target="4eVcWJ5UlR-3Z9uUQu4H-14">
                    <mxGeometry width="160" relative="1" as="geometry">
                        <mxPoint x="330" y="430" as="sourcePoint"/>
                        <mxPoint x="490" y="430" as="targetPoint"/>
                    </mxGeometry>
                </mxCell>
                <mxCell id="4eVcWJ5UlR-3Z9uUQu4H-17" value="" style="endArrow=open;endFill=1;endSize=12;html=1;labelBackgroundColor=#FFFFFF;fontColor=#000000;strokeColor=#000000;exitX=1;exitY=0.5;exitDx=0;exitDy=0;entryX=0;entryY=0.5;entryDx=0;entryDy=0;" edge="1" parent="53M8R1Ztt3jaLmPYGCeH-1" source="4eVcWJ5UlR-3Z9uUQu4H-12" target="4eVcWJ5UlR-3Z9uUQu4H-15">
                    <mxGeometry width="160" relative="1" as="geometry">
                        <mxPoint x="290" y="470" as="sourcePoint"/>
                        <mxPoint x="370" y="420" as="targetPoint"/>
                    </mxGeometry>
                </mxCell>
                <mxCell id="4eVcWJ5UlR-3Z9uUQu4H-18" value="QL tài khoản" style="ellipse;whiteSpace=wrap;html=1;fontColor=#000000;strokeColor=#000000;fillColor=#FFFFFF;" vertex="1" parent="53M8R1Ztt3jaLmPYGCeH-1">
                    <mxGeometry x="160" y="500" width="120" height="40" as="geometry"/>
                </mxCell>
                <mxCell id="4eVcWJ5UlR-3Z9uUQu4H-19" value="" style="endArrow=open;endFill=1;endSize=12;html=1;labelBackgroundColor=#FFFFFF;fontColor=#000000;strokeColor=#000000;exitX=0.5;exitY=0.5;exitDx=0;exitDy=0;exitPerimeter=0;entryX=0;entryY=0;entryDx=0;entryDy=0;" edge="1" parent="53M8R1Ztt3jaLmPYGCeH-1" source="4eVcWJ5UlR-3Z9uUQu4H-0" target="4eVcWJ5UlR-3Z9uUQu4H-18">
                    <mxGeometry width="160" relative="1" as="geometry">
                        <mxPoint x="330" y="430" as="sourcePoint"/>
                        <mxPoint x="490" y="430" as="targetPoint"/>
                    </mxGeometry>
                </mxCell>
                <mxCell id="4eVcWJ5UlR-3Z9uUQu4H-20" value="Xem DS tài khoản" style="ellipse;whiteSpace=wrap;html=1;fontColor=#000000;strokeColor=#000000;fillColor=#FFFFFF;" vertex="1" parent="53M8R1Ztt3jaLmPYGCeH-1">
                    <mxGeometry x="360" y="500" width="120" height="40" as="geometry"/>
                </mxCell>
                <mxCell id="4eVcWJ5UlR-3Z9uUQu4H-21" value="Thêm tài khoản" style="ellipse;whiteSpace=wrap;html=1;fontColor=#000000;strokeColor=#000000;fillColor=#FFFFFF;" vertex="1" parent="53M8R1Ztt3jaLmPYGCeH-1">
                    <mxGeometry x="360" y="560" width="120" height="40" as="geometry"/>
                </mxCell>
                <mxCell id="4eVcWJ5UlR-3Z9uUQu4H-22" value="Xóa tài khoản" style="ellipse;whiteSpace=wrap;html=1;fontColor=#000000;strokeColor=#000000;fillColor=#FFFFFF;" vertex="1" parent="53M8R1Ztt3jaLmPYGCeH-1">
                    <mxGeometry x="360" y="650" width="120" height="40" as="geometry"/>
                </mxCell>
                <mxCell id="4eVcWJ5UlR-3Z9uUQu4H-23" value="" style="endArrow=open;endFill=1;endSize=12;html=1;labelBackgroundColor=#FFFFFF;fontColor=#000000;strokeColor=#000000;exitX=1;exitY=0.5;exitDx=0;exitDy=0;entryX=0;entryY=0.5;entryDx=0;entryDy=0;" edge="1" parent="53M8R1Ztt3jaLmPYGCeH-1" source="4eVcWJ5UlR-3Z9uUQu4H-18" target="4eVcWJ5UlR-3Z9uUQu4H-20">
                    <mxGeometry width="160" relative="1" as="geometry">
                        <mxPoint x="330" y="430" as="sourcePoint"/>
                        <mxPoint x="490" y="430" as="targetPoint"/>
                    </mxGeometry>
                </mxCell>
                <mxCell id="4eVcWJ5UlR-3Z9uUQu4H-24" value="" style="endArrow=open;endFill=1;endSize=12;html=1;labelBackgroundColor=#FFFFFF;fontColor=#000000;strokeColor=#000000;exitX=1;exitY=0.5;exitDx=0;exitDy=0;entryX=0;entryY=0.5;entryDx=0;entryDy=0;" edge="1" parent="53M8R1Ztt3jaLmPYGCeH-1" source="4eVcWJ5UlR-3Z9uUQu4H-18" target="4eVcWJ5UlR-3Z9uUQu4H-21">
                    <mxGeometry width="160" relative="1" as="geometry">
                        <mxPoint x="330" y="430" as="sourcePoint"/>
                        <mxPoint x="350" y="560" as="targetPoint"/>
                    </mxGeometry>
                </mxCell>
                <mxCell id="4eVcWJ5UlR-3Z9uUQu4H-25" value="" style="endArrow=open;endFill=1;endSize=12;html=1;labelBackgroundColor=#FFFFFF;fontColor=#000000;strokeColor=#000000;exitX=1;exitY=0.5;exitDx=0;exitDy=0;entryX=0;entryY=0.5;entryDx=0;entryDy=0;" edge="1" parent="53M8R1Ztt3jaLmPYGCeH-1" source="4eVcWJ5UlR-3Z9uUQu4H-18" target="4eVcWJ5UlR-3Z9uUQu4H-22">
                    <mxGeometry width="160" relative="1" as="geometry">
                        <mxPoint x="330" y="430" as="sourcePoint"/>
                        <mxPoint x="490" y="430" as="targetPoint"/>
                    </mxGeometry>
                </mxCell>
                <mxCell id="4eVcWJ5UlR-3Z9uUQu4H-26" value="Include" style="endArrow=block;endSize=16;endFill=0;html=1;labelBackgroundColor=#FFFFFF;fontColor=#000000;strokeColor=#000000;entryX=0.5;entryY=1;entryDx=0;entryDy=0;exitX=0.5;exitY=0;exitDx=0;exitDy=0;" edge="1" parent="53M8R1Ztt3jaLmPYGCeH-1" source="4eVcWJ5UlR-3Z9uUQu4H-22" target="4eVcWJ5UlR-3Z9uUQu4H-21">
                    <mxGeometry x="-0.25" width="160" relative="1" as="geometry">
                        <mxPoint x="620" y="490" as="sourcePoint"/>
                        <mxPoint x="230" y="330" as="targetPoint"/>
                        <Array as="points"/>
                        <mxPoint as="offset"/>
                    </mxGeometry>
                </mxCell>
                <mxCell id="4eVcWJ5UlR-3Z9uUQu4H-27" value="Include" style="endArrow=block;endSize=16;endFill=0;html=1;labelBackgroundColor=#FFFFFF;fontColor=#000000;strokeColor=#000000;entryX=1;entryY=0.5;entryDx=0;entryDy=0;exitX=1;exitY=0.5;exitDx=0;exitDy=0;" edge="1" parent="53M8R1Ztt3jaLmPYGCeH-1" source="4eVcWJ5UlR-3Z9uUQu4H-22" target="4eVcWJ5UlR-3Z9uUQu4H-20">
                    <mxGeometry x="-0.25" width="160" relative="1" as="geometry">
                        <mxPoint x="430" y="660" as="sourcePoint"/>
                        <mxPoint x="430" y="610" as="targetPoint"/>
                        <Array as="points">
                            <mxPoint x="520" y="670"/>
                            <mxPoint x="520" y="520"/>
                        </Array>
                        <mxPoint as="offset"/>
                    </mxGeometry>
                </mxCell>
                <mxCell id="4eVcWJ5UlR-3Z9uUQu4H-28" value="QL phòng" style="ellipse;whiteSpace=wrap;html=1;fontColor=#000000;strokeColor=#000000;fillColor=#FFFFFF;" vertex="1" parent="53M8R1Ztt3jaLmPYGCeH-1">
                    <mxGeometry x="160" y="560" width="120" height="40" as="geometry"/>
                </mxCell>
                <mxCell id="4eVcWJ5UlR-3Z9uUQu4H-29" value="" style="endArrow=open;endFill=1;endSize=12;html=1;labelBackgroundColor=#FFFFFF;fontColor=#000000;strokeColor=#000000;exitX=0.5;exitY=0.5;exitDx=0;exitDy=0;exitPerimeter=0;entryX=0;entryY=0;entryDx=0;entryDy=0;" edge="1" parent="53M8R1Ztt3jaLmPYGCeH-1" source="4eVcWJ5UlR-3Z9uUQu4H-0" target="4eVcWJ5UlR-3Z9uUQu4H-28">
                    <mxGeometry width="160" relative="1" as="geometry">
                        <mxPoint x="330" y="430" as="sourcePoint"/>
                        <mxPoint x="490" y="430" as="targetPoint"/>
                    </mxGeometry>
                </mxCell>
                <mxCell id="4eVcWJ5UlR-3Z9uUQu4H-30" value="Thêm phòng" style="ellipse;whiteSpace=wrap;html=1;fontColor=#000000;strokeColor=#000000;fillColor=#FFFFFF;" vertex="1" parent="53M8R1Ztt3jaLmPYGCeH-1">
                    <mxGeometry x="10" y="640" width="120" height="40" as="geometry"/>
                </mxCell>
                <mxCell id="4eVcWJ5UlR-3Z9uUQu4H-31" value="Xem DS phòng" style="ellipse;whiteSpace=wrap;html=1;fontColor=#000000;strokeColor=#000000;fillColor=#FFFFFF;" vertex="1" parent="53M8R1Ztt3jaLmPYGCeH-1">
                    <mxGeometry x="360" y="760" width="120" height="40" as="geometry"/>
                </mxCell>
                <mxCell id="4eVcWJ5UlR-3Z9uUQu4H-32" value="Sửa TT phòng" style="ellipse;whiteSpace=wrap;html=1;fontColor=#000000;strokeColor=#000000;fillColor=#FFFFFF;" vertex="1" parent="53M8R1Ztt3jaLmPYGCeH-1">
                    <mxGeometry x="170" y="760" width="120" height="40" as="geometry"/>
                </mxCell>
                <mxCell id="4eVcWJ5UlR-3Z9uUQu4H-33" value="Xóa phòng" style="ellipse;whiteSpace=wrap;html=1;fontColor=#000000;strokeColor=#000000;fillColor=#FFFFFF;" vertex="1" parent="53M8R1Ztt3jaLmPYGCeH-1">
                    <mxGeometry x="40" y="760" width="120" height="40" as="geometry"/>
                </mxCell>
                <mxCell id="4eVcWJ5UlR-3Z9uUQu4H-34" value="" style="endArrow=open;endFill=1;endSize=12;html=1;labelBackgroundColor=#FFFFFF;fontColor=#000000;strokeColor=#000000;exitX=0;exitY=0.5;exitDx=0;exitDy=0;entryX=0.5;entryY=0;entryDx=0;entryDy=0;" edge="1" parent="53M8R1Ztt3jaLmPYGCeH-1" source="4eVcWJ5UlR-3Z9uUQu4H-28" target="4eVcWJ5UlR-3Z9uUQu4H-30">
                    <mxGeometry width="160" relative="1" as="geometry">
                        <mxPoint x="330" y="430" as="sourcePoint"/>
                        <mxPoint x="490" y="430" as="targetPoint"/>
                    </mxGeometry>
                </mxCell>
                <mxCell id="4eVcWJ5UlR-3Z9uUQu4H-35" value="" style="endArrow=open;endFill=1;endSize=12;html=1;labelBackgroundColor=#FFFFFF;fontColor=#000000;strokeColor=#000000;exitX=0;exitY=1;exitDx=0;exitDy=0;entryX=1;entryY=0;entryDx=0;entryDy=0;" edge="1" parent="53M8R1Ztt3jaLmPYGCeH-1" source="4eVcWJ5UlR-3Z9uUQu4H-28" target="4eVcWJ5UlR-3Z9uUQu4H-33">
                    <mxGeometry width="160" relative="1" as="geometry">
                        <mxPoint x="330" y="430" as="sourcePoint"/>
                        <mxPoint x="490" y="430" as="targetPoint"/>
                    </mxGeometry>
                </mxCell>
                <mxCell id="4eVcWJ5UlR-3Z9uUQu4H-36" value="" style="endArrow=open;endFill=1;endSize=12;html=1;labelBackgroundColor=#FFFFFF;fontColor=#000000;strokeColor=#000000;exitX=0.5;exitY=1;exitDx=0;exitDy=0;entryX=0.5;entryY=0;entryDx=0;entryDy=0;" edge="1" parent="53M8R1Ztt3jaLmPYGCeH-1" source="4eVcWJ5UlR-3Z9uUQu4H-28" target="4eVcWJ5UlR-3Z9uUQu4H-32">
                    <mxGeometry width="160" relative="1" as="geometry">
                        <mxPoint x="330" y="430" as="sourcePoint"/>
                        <mxPoint x="490" y="430" as="targetPoint"/>
                    </mxGeometry>
                </mxCell>
                <mxCell id="4eVcWJ5UlR-3Z9uUQu4H-37" value="" style="endArrow=open;endFill=1;endSize=12;html=1;labelBackgroundColor=#FFFFFF;fontColor=#000000;strokeColor=#000000;exitX=1;exitY=1;exitDx=0;exitDy=0;entryX=0.5;entryY=0;entryDx=0;entryDy=0;" edge="1" parent="53M8R1Ztt3jaLmPYGCeH-1" source="4eVcWJ5UlR-3Z9uUQu4H-28" target="4eVcWJ5UlR-3Z9uUQu4H-31">
                    <mxGeometry width="160" relative="1" as="geometry">
                        <mxPoint x="330" y="430" as="sourcePoint"/>
                        <mxPoint x="490" y="430" as="targetPoint"/>
                    </mxGeometry>
                </mxCell>
                <mxCell id="4eVcWJ5UlR-3Z9uUQu4H-38" value="Include" style="endArrow=block;endSize=16;endFill=0;html=1;labelBackgroundColor=#FFFFFF;fontColor=#000000;strokeColor=#000000;entryX=1;entryY=0.5;entryDx=0;entryDy=0;exitX=0;exitY=0;exitDx=0;exitDy=0;" edge="1" parent="53M8R1Ztt3jaLmPYGCeH-1" source="4eVcWJ5UlR-3Z9uUQu4H-32" target="4eVcWJ5UlR-3Z9uUQu4H-30">
                    <mxGeometry x="-0.25" width="160" relative="1" as="geometry">
                        <mxPoint x="430" y="660" as="sourcePoint"/>
                        <mxPoint x="430" y="610" as="targetPoint"/>
                        <Array as="points"/>
                        <mxPoint as="offset"/>
                    </mxGeometry>
                </mxCell>
                <mxCell id="4eVcWJ5UlR-3Z9uUQu4H-39" value="Include" style="endArrow=block;endSize=16;endFill=0;html=1;labelBackgroundColor=#FFFFFF;fontColor=#000000;strokeColor=#000000;entryX=0.5;entryY=1;entryDx=0;entryDy=0;exitX=0.5;exitY=0;exitDx=0;exitDy=0;" edge="1" parent="53M8R1Ztt3jaLmPYGCeH-1" source="4eVcWJ5UlR-3Z9uUQu4H-33" target="4eVcWJ5UlR-3Z9uUQu4H-30">
                    <mxGeometry x="-0.25" width="160" relative="1" as="geometry">
                        <mxPoint x="227.57359312880726" y="775.8578643762692" as="sourcePoint"/>
                        <mxPoint x="140" y="670" as="targetPoint"/>
                        <Array as="points"/>
                        <mxPoint as="offset"/>
                    </mxGeometry>
                </mxCell>
                <mxCell id="4eVcWJ5UlR-3Z9uUQu4H-40" value="Include" style="endArrow=block;endSize=16;endFill=0;html=1;labelBackgroundColor=#FFFFFF;fontColor=#000000;strokeColor=#000000;entryX=0.5;entryY=1;entryDx=0;entryDy=0;exitX=0.5;exitY=1;exitDx=0;exitDy=0;" edge="1" parent="53M8R1Ztt3jaLmPYGCeH-1" source="4eVcWJ5UlR-3Z9uUQu4H-33" target="4eVcWJ5UlR-3Z9uUQu4H-31">
                    <mxGeometry x="-0.25" width="160" relative="1" as="geometry">
                        <mxPoint x="110" y="770" as="sourcePoint"/>
                        <mxPoint x="80" y="690" as="targetPoint"/>
                        <Array as="points">
                            <mxPoint x="100" y="840"/>
                            <mxPoint x="420" y="840"/>
                        </Array>
                        <mxPoint as="offset"/>
                    </mxGeometry>
                </mxCell>
                <mxCell id="4eVcWJ5UlR-3Z9uUQu4H-42" value="Include" style="endArrow=block;endSize=16;endFill=0;html=1;labelBackgroundColor=#FFFFFF;fontColor=#000000;strokeColor=#000000;entryX=0;entryY=0.5;entryDx=0;entryDy=0;exitX=1;exitY=0.5;exitDx=0;exitDy=0;" edge="1" parent="53M8R1Ztt3jaLmPYGCeH-1" source="4eVcWJ5UlR-3Z9uUQu4H-32" target="4eVcWJ5UlR-3Z9uUQu4H-31">
                    <mxGeometry x="-0.25" width="160" relative="1" as="geometry">
                        <mxPoint x="110" y="770" as="sourcePoint"/>
                        <mxPoint x="80" y="690" as="targetPoint"/>
                        <Array as="points"/>
                        <mxPoint as="offset"/>
                    </mxGeometry>
                </mxCell>
            </root>
        </mxGraphModel>
    </diagram>
    <diagram id="N_Rh2Axe2KRd4b-VtT0h" name="Usercase Khách hàng">
        <mxGraphModel dx="1118" dy="828" grid="1" gridSize="10" guides="1" tooltips="1" connect="1" arrows="1" fold="1" page="1" pageScale="1" pageWidth="827" pageHeight="1169" background="#FFFFFF" math="0" shadow="0">
            <root>
                <mxCell id="0"/>
                <mxCell id="1" parent="0"/>
                <mxCell id="2" value="Khách hàng" style="shape=umlActor;verticalLabelPosition=bottom;verticalAlign=top;html=1;fontColor=#000000;strokeColor=#000000;" vertex="1" parent="1">
                    <mxGeometry x="20" y="310" width="30" height="60" as="geometry"/>
                </mxCell>
                <mxCell id="3" value="Đăng nhập" style="ellipse;whiteSpace=wrap;html=1;fontColor=#000000;strokeColor=#000000;fillColor=#FFFFFF;" vertex="1" parent="1">
                    <mxGeometry x="160" y="400" width="120" height="40" as="geometry"/>
                </mxCell>
                <mxCell id="4" value="Đăng xuất" style="ellipse;whiteSpace=wrap;html=1;fontColor=#000000;strokeColor=#000000;fillColor=#FFFFFF;" vertex="1" parent="1">
                    <mxGeometry x="400" y="400" width="120" height="40" as="geometry"/>
                </mxCell>
                <mxCell id="5" value="" style="endArrow=open;endFill=1;endSize=12;html=1;fontColor=#000000;strokeColor=#000000;entryX=0;entryY=0.5;entryDx=0;entryDy=0;exitX=0.5;exitY=0.5;exitDx=0;exitDy=0;exitPerimeter=0;" edge="1" parent="1" source="2" target="3">
                    <mxGeometry width="160" relative="1" as="geometry">
                        <mxPoint x="330" y="420" as="sourcePoint"/>
                        <mxPoint x="490" y="420" as="targetPoint"/>
                    </mxGeometry>
                </mxCell>
                <mxCell id="6" value="Extends" style="endArrow=block;endSize=16;endFill=0;html=1;fontColor=#000000;strokeColor=#000000;exitX=0;exitY=0.5;exitDx=0;exitDy=0;labelBackgroundColor=#FFFFFF;entryX=1;entryY=0.5;entryDx=0;entryDy=0;" edge="1" parent="1" source="4" target="3">
                    <mxGeometry width="160" relative="1" as="geometry">
                        <mxPoint x="330" y="420" as="sourcePoint"/>
                        <mxPoint x="490" y="320" as="targetPoint"/>
                    </mxGeometry>
                </mxCell>
                <mxCell id="7" value="Xem thông tin&lt;br&gt;&amp;nbsp;thanh toán" style="ellipse;whiteSpace=wrap;html=1;fontColor=#000000;strokeColor=#000000;fillColor=#FFFFFF;" vertex="1" parent="1">
                    <mxGeometry x="160" y="320" width="120" height="40" as="geometry"/>
                </mxCell>
                <mxCell id="8" value="" style="endArrow=open;endFill=1;endSize=12;html=1;labelBackgroundColor=#FFFFFF;fontColor=#000000;strokeColor=#000000;exitX=0.5;exitY=0.5;exitDx=0;exitDy=0;exitPerimeter=0;entryX=0;entryY=0.5;entryDx=0;entryDy=0;" edge="1" parent="1" source="2" target="7">
                    <mxGeometry width="160" relative="1" as="geometry">
                        <mxPoint x="330" y="420" as="sourcePoint"/>
                        <mxPoint x="490" y="420" as="targetPoint"/>
                    </mxGeometry>
                </mxCell>
                <mxCell id="9" value="Xem thông tin &lt;br&gt;cá nhân" style="ellipse;whiteSpace=wrap;html=1;fontColor=#000000;strokeColor=#000000;fillColor=#FFFFFF;" vertex="1" parent="1">
                    <mxGeometry x="160" y="240" width="120" height="40" as="geometry"/>
                </mxCell>
                <mxCell id="10" value="Cập nhật thông tin&lt;br&gt;cá nhân" style="ellipse;whiteSpace=wrap;html=1;fontColor=#000000;strokeColor=#000000;fillColor=#FFFFFF;" vertex="1" parent="1">
                    <mxGeometry x="160" y="120" width="120" height="40" as="geometry"/>
                </mxCell>
                <mxCell id="12" value="" style="endArrow=open;endFill=1;endSize=12;html=1;labelBackgroundColor=#FFFFFF;fontColor=#000000;strokeColor=#000000;exitX=0.5;exitY=0.5;exitDx=0;exitDy=0;exitPerimeter=0;entryX=0;entryY=1;entryDx=0;entryDy=0;" edge="1" parent="1" source="2" target="9">
                    <mxGeometry width="160" relative="1" as="geometry">
                        <mxPoint x="330" y="420" as="sourcePoint"/>
                        <mxPoint x="490" y="420" as="targetPoint"/>
                    </mxGeometry>
                </mxCell>
                <mxCell id="13" value="Include" style="endArrow=block;endSize=16;endFill=0;html=1;labelBackgroundColor=#FFFFFF;fontColor=#000000;strokeColor=#000000;exitX=0.5;exitY=1;exitDx=0;exitDy=0;" edge="1" parent="1" source="10" target="9">
                    <mxGeometry width="160" relative="1" as="geometry">
                        <mxPoint x="330" y="420" as="sourcePoint"/>
                        <mxPoint x="490" y="420" as="targetPoint"/>
                    </mxGeometry>
                </mxCell>
                <mxCell id="14" value="Include" style="endArrow=block;endSize=16;endFill=0;html=1;labelBackgroundColor=#FFFFFF;fontColor=#000000;strokeColor=#000000;exitX=1;exitY=0.5;exitDx=0;exitDy=0;entryX=1;entryY=0;entryDx=0;entryDy=0;" edge="1" parent="1" source="9" target="3">
                    <mxGeometry x="0.3333" width="160" relative="1" as="geometry">
                        <mxPoint x="430" y="440" as="sourcePoint"/>
                        <mxPoint x="350" y="440" as="targetPoint"/>
                        <Array as="points">
                            <mxPoint x="320" y="260"/>
                            <mxPoint x="320" y="280"/>
                            <mxPoint x="320" y="380"/>
                        </Array>
                        <mxPoint as="offset"/>
                    </mxGeometry>
                </mxCell>
                <mxCell id="15" value="Quản lý thuê phòng" style="ellipse;whiteSpace=wrap;html=1;fontColor=#000000;strokeColor=#000000;fillColor=#FFFFFF;" vertex="1" parent="1">
                    <mxGeometry x="160" y="500" width="120" height="40" as="geometry"/>
                </mxCell>
                <mxCell id="16" value="Include" style="endArrow=block;endSize=16;endFill=0;html=1;labelBackgroundColor=#FFFFFF;fontColor=#000000;strokeColor=#000000;exitX=0.5;exitY=1;exitDx=0;exitDy=0;entryX=0.5;entryY=0;entryDx=0;entryDy=0;" edge="1" parent="1" source="3" target="15">
                    <mxGeometry x="-0.3333" width="160" relative="1" as="geometry">
                        <mxPoint x="370" y="270" as="sourcePoint"/>
                        <mxPoint x="290" y="270" as="targetPoint"/>
                        <Array as="points">
                            <mxPoint x="220" y="460"/>
                        </Array>
                        <mxPoint as="offset"/>
                    </mxGeometry>
                </mxCell>
                <mxCell id="17" value="" style="endArrow=open;endFill=1;endSize=12;html=1;labelBackgroundColor=#FFFFFF;fontColor=#000000;strokeColor=#000000;exitX=0.5;exitY=0.5;exitDx=0;exitDy=0;exitPerimeter=0;entryX=0;entryY=0;entryDx=0;entryDy=0;" edge="1" parent="1" source="2" target="15">
                    <mxGeometry width="160" relative="1" as="geometry">
                        <mxPoint x="330" y="420" as="sourcePoint"/>
                        <mxPoint x="490" y="420" as="targetPoint"/>
                    </mxGeometry>
                </mxCell>
                <mxCell id="18" value="Đặt phòng" style="ellipse;whiteSpace=wrap;html=1;fontColor=#000000;strokeColor=#000000;fillColor=#FFFFFF;" vertex="1" parent="1">
                    <mxGeometry x="280" y="560" width="120" height="40" as="geometry"/>
                </mxCell>
                <mxCell id="19" value="Tìm phòng còn trống" style="ellipse;whiteSpace=wrap;html=1;fontColor=#000000;strokeColor=#000000;fillColor=#FFFFFF;" vertex="1" parent="1">
                    <mxGeometry x="240" y="640" width="120" height="40" as="geometry"/>
                </mxCell>
                <mxCell id="20" value="Xem phòng đã thuê" style="ellipse;whiteSpace=wrap;html=1;fontColor=#000000;strokeColor=#000000;fillColor=#FFFFFF;" vertex="1" parent="1">
                    <mxGeometry x="40" y="560" width="120" height="40" as="geometry"/>
                </mxCell>
                <mxCell id="21" value="Xóa phòng đã thuê" style="ellipse;whiteSpace=wrap;html=1;fontColor=#000000;strokeColor=#000000;fillColor=#FFFFFF;" vertex="1" parent="1">
                    <mxGeometry x="80" y="640" width="120" height="40" as="geometry"/>
                </mxCell>
                <mxCell id="22" value="" style="endArrow=open;endFill=1;endSize=12;html=1;labelBackgroundColor=#FFFFFF;fontColor=#000000;strokeColor=#000000;entryX=0;entryY=0;entryDx=0;entryDy=0;exitX=1;exitY=0.5;exitDx=0;exitDy=0;" edge="1" parent="1" source="15" target="18">
                    <mxGeometry width="160" relative="1" as="geometry">
                        <mxPoint x="330" y="420" as="sourcePoint"/>
                        <mxPoint x="490" y="420" as="targetPoint"/>
                    </mxGeometry>
                </mxCell>
                <mxCell id="23" value="" style="endArrow=open;endFill=1;endSize=12;html=1;labelBackgroundColor=#FFFFFF;fontColor=#000000;strokeColor=#000000;exitX=0;exitY=0.5;exitDx=0;exitDy=0;entryX=1;entryY=0;entryDx=0;entryDy=0;" edge="1" parent="1" source="15" target="20">
                    <mxGeometry width="160" relative="1" as="geometry">
                        <mxPoint x="330" y="420" as="sourcePoint"/>
                        <mxPoint x="490" y="420" as="targetPoint"/>
                    </mxGeometry>
                </mxCell>
                <mxCell id="24" value="" style="endArrow=open;endFill=1;endSize=12;html=1;labelBackgroundColor=#FFFFFF;fontColor=#000000;strokeColor=#000000;exitX=0.5;exitY=1;exitDx=0;exitDy=0;entryX=1;entryY=0;entryDx=0;entryDy=0;" edge="1" parent="1" source="15" target="21">
                    <mxGeometry width="160" relative="1" as="geometry">
                        <mxPoint x="330" y="420" as="sourcePoint"/>
                        <mxPoint x="490" y="420" as="targetPoint"/>
                    </mxGeometry>
                </mxCell>
                <mxCell id="25" value="" style="endArrow=open;endFill=1;endSize=12;html=1;labelBackgroundColor=#FFFFFF;fontColor=#000000;strokeColor=#000000;exitX=0.5;exitY=1;exitDx=0;exitDy=0;entryX=0;entryY=0;entryDx=0;entryDy=0;" edge="1" parent="1" source="15" target="19">
                    <mxGeometry width="160" relative="1" as="geometry">
                        <mxPoint x="330" y="420" as="sourcePoint"/>
                        <mxPoint x="490" y="420" as="targetPoint"/>
                    </mxGeometry>
                </mxCell>
                <mxCell id="27" value="Include" style="endArrow=block;endSize=16;endFill=0;html=1;labelBackgroundColor=#FFFFFF;fontColor=#000000;strokeColor=#000000;exitX=0.5;exitY=0;exitDx=0;exitDy=0;entryX=0.5;entryY=1;entryDx=0;entryDy=0;" edge="1" parent="1" source="21" target="20">
                    <mxGeometry x="-0.25" y="-7" width="160" relative="1" as="geometry">
                        <mxPoint x="230" y="170" as="sourcePoint"/>
                        <mxPoint x="230" y="250" as="targetPoint"/>
                        <mxPoint as="offset"/>
                    </mxGeometry>
                </mxCell>
                <mxCell id="28" value="Include" style="endArrow=block;endSize=16;endFill=0;html=1;labelBackgroundColor=#FFFFFF;fontColor=#000000;strokeColor=#000000;exitX=0.5;exitY=1;exitDx=0;exitDy=0;entryX=0.5;entryY=0;entryDx=0;entryDy=0;" edge="1" parent="1" source="18" target="19">
                    <mxGeometry x="-0.25" y="-7" width="160" relative="1" as="geometry">
                        <mxPoint x="150" y="650" as="sourcePoint"/>
                        <mxPoint x="110" y="610" as="targetPoint"/>
                        <mxPoint as="offset"/>
                    </mxGeometry>
                </mxCell>
            </root>
        </mxGraphModel>
    </diagram>
</mxfile>